<svg xmlns="http://www.w3.org/2000/svg" width="260.623" height="1619.95" viewBox="0 0 260.623 1619.95"><defs><style>.a{fill:#270001;opacity:0.5;}</style></defs><path class="a" d="M22.2,0h95.586C207.64,0,260.266-53.342,260.266-126.016v-.716c0-72.674-51.91-123.868-141.052-123.868H22.2ZM119.93-189.382c41.886,0,69.452,23.27,69.452,63.724v.716c0,40.454-27.566,63.366-69.452,63.366H91.648V-189.382ZM296.424,0H499.768V-59.07H365.16V-98.808H485.448v-54.774H365.16v-38.306H497.978V-250.6H296.424ZM634.018,4.3c60.86,0,101.314-30.43,101.314-81.624v-.716c0-46.9-35.8-65.514-93.08-78.044-35.084-7.518-43.676-13.246-43.676-24.344v-.716c0-9.666,8.234-16.11,25.06-16.11,22.554,0,47.256,7.876,70.168,24.7L728.53-221.6c-27.208-21.838-60.144-33.294-103.1-33.294-60.144,0-97.018,33.294-97.018,80.192v.716c0,51.552,41.528,66.23,94.512,78.4,34.368,8.592,42.6,13.6,42.6,24.344v.716c0,11.1-10.024,17.184-29,17.184-28.64,0-55.848-10.024-81.266-30.072L516.594-37.232C548.1-9.666,589.268,4.3,634.018,4.3ZM770.774,0h69.452V-250.6H770.774Zm243.082,5.012c46.182,0,81.982-16.468,108.832-39.022V-146.422H1007.77v50.836h49.046v30.43c-10.024,6.8-22.912,10.382-40.1,10.382-39.738,0-68.02-29-68.02-69.81v-.716c0-38.306,28.282-68.378,64.082-68.378,25.418,0,42.244,8.234,60.5,23.628l40.812-49.4c-26.85-22.912-57.28-36.158-101.672-36.158-77.328,0-134.608,57.28-134.608,130.312v.716C877.816-48.33,935.454,5.012,1013.856,5.012ZM1161.352,0h68.736V-137.472L1337.488,0h60.5V-250.6h-68.736v132.46L1226.15-250.6h-64.8Zm379.48,4.3c60.86,0,101.314-30.43,101.314-81.624v-.716c0-46.9-35.8-65.514-93.08-78.044-35.084-7.518-43.676-13.246-43.676-24.344v-.716c0-9.666,8.234-16.11,25.06-16.11,22.554,0,47.256,7.876,70.168,24.7l34.726-49.046c-27.208-21.838-60.144-33.294-103.1-33.294-60.144,0-97.018,33.294-97.018,80.192v.716c0,51.552,41.528,66.23,94.512,78.4,34.368,8.592,42.6,13.6,42.6,24.344v.716c0,11.1-10.024,17.184-29,17.184-28.64,0-55.848-10.024-81.266-30.072l-38.664,46.182C1454.912-9.666,1496.082,4.3,1540.832,4.3Z" transform="translate(5.012 -22.196) rotate(90)"/></svg>