<?xml version="1.0" encoding="UTF-8"?> <svg xmlns="http://www.w3.org/2000/svg" width="65.703" height="65.703" viewBox="0 0 65.703 65.703"><g id="Group_394" data-name="Group 394" transform="translate(-411.517 -380.084)"><g id="Group_391" data-name="Group 391" transform="translate(411.517 380.084)"><path id="Path_490" data-name="Path 490" d="M444.368,431.307l-5.553,5.553-25.266-6.77-2.033-7.586,5.554-5.554,25.264,6.769Z" transform="translate(-411.517 -398.455)" fill="#ff5c39"></path><path id="Path_491" data-name="Path 491" d="M452.309,395.643l-15.559-4.169,11.39-11.39Z" transform="translate(-424.091 -380.085)" fill="#ff5c39"></path><path id="Path_492" data-name="Path 492" d="M436.3,466.685l-11.379,11.379L420.76,462.52Z" transform="translate(-416.123 -421.164)" fill="#ff5c39"></path></g><g id="Group_392" data-name="Group 392" transform="translate(420.319 412.935)"><path id="Path_493" data-name="Path 493" d="M471.484,445.568l-5.552,5.553,6.77,25.266,7.586,2.033,5.554-5.554L479.072,447.6Z" transform="translate(-447.436 -445.568)" fill="#bc204b"></path><path id="Path_494" data-name="Path 494" d="M511.469,454.8l4.169,15.559,11.39-11.39Z" transform="translate(-470.128 -450.17)" fill="#bc204b"></path><path id="Path_495" data-name="Path 495" d="M440.442,470.823,429.063,482.2l15.544,4.165Z" transform="translate(-429.063 -458.153)" fill="#bc204b"></path></g><g id="Group_393" data-name="Group 393" transform="translate(435.566 380.084)"><path id="Path_496" data-name="Path 496" d="M499.03,395.611l-7.585-2.032-18.5,18.5,2.033,7.586,7.587,2.033L501.063,403.2Z" transform="translate(-466.179 -386.809)" fill="#ef3340"></path><path id="Path_497" data-name="Path 497" d="M522.859,432.1l-11.39,11.39,15.559,4.169Z" transform="translate(-485.374 -406.004)" fill="#ef3340"></path><path id="Path_498" data-name="Path 498" d="M475,384.249l-15.544-4.165,4.165,15.544Z" transform="translate(-459.455 -380.084)" fill="#ef3340"></path></g></g></svg> 
