<?xml version="1.0" encoding="UTF-8"?>
<svg id="Layer_2" data-name="Layer 2" xmlns="http://www.w3.org/2000/svg" viewBox="0 0 918.17 878.29">
  <defs>
    <style>
      .cls-1 {
        fill: #fa8f04;
      }

      .cls-2 {
        fill: none;
      }

      .cls-3 {
        fill: #010d00;
      }

      .cls-4 {
        fill: #270001;
      }

      .cls-5 {
        font-size: 45.39px;
      }

      .cls-5, .cls-6 {
        font-family: MyriadPro-Regular, 'Myriad Pro';
      }

      .cls-5, .cls-6, .cls-7, .cls-8 {
        fill: #ffb70f;
      }

      .cls-5, .cls-6, .cls-8 {
        stroke: #ffb302;
        stroke-miterlimit: 10;
      }

      .cls-9 {
        fill: #163019;
      }

      .cls-6 {
        font-size: 46px;
      }

      .cls-10 {
        fill: #251315;
      }

      .cls-11 {
        fill: #3a4232;
      }

      .cls-12 {
        fill: #db9101;
      }
    </style>
  </defs>
  <g id="Layer_1-2" data-name="Layer 1">
    <g>
      <line class="cls-2" x1="10.02" y1="705.17" x2="9.94" y2="705.1"/>
      <path class="cls-10" d="M54.54,591.17s-17.39-3.46-20.14-7.69l3.23-5.45s5.9-13.67,19.11-7.1c13.21,6.57-2.2,20.24-2.2,20.24Z"/>
      <path class="cls-2" d="M34.4,583.48s-.01-.01-.01-.01"/>
      <line class="cls-2" x1="10.45" y1="716.97" x2="10.38" y2="716.91"/>
      <line class="cls-2" x1="887.49" y1="717.68" x2="887.56" y2="717.61"/>
      <path class="cls-7" d="M573.28,171.21c.07.16.14.33.2.49-.02-.04-.05-.09-.08-.14l-.12-.35Z"/>
      <path class="cls-7" d="M344.05,171.61l-.12.35s-.06.1-.09.14c.07-.16.14-.33.21-.49Z"/>
      <path class="cls-2" d="M44.52,565.77s-.01-.01-.01-.01"/>
      <line class="cls-2" x1="20.57" y1="699.27" x2="20.49" y2="699.2"/>
      <path class="cls-2" d="M873.65,566.48s.01,0,.01,0"/>
      <line class="cls-2" x1="897.6" y1="699.97" x2="897.68" y2="699.91"/>
      <g>
        <path class="cls-11" d="M131.62,663.75c-.89,1.47-21.01,34.48-21.65,35.54l-.02.03-.05.04c-18.23-.57-32.79-7.47-43.97-16.1l19.53-30.42c1.32,5.6,12.09,11.12,46.14,10.9h.02Z"/>
        <path class="cls-11" d="M86.76,567.48c-4.79,22.82-22.55,29.75-22.55,29.75-14.47-1.14-24.22-6.4-30.78-12.78l11.09-18.68c2.75,4.23,20.14,7.69,20.14,7.69,0,0,9.58,6.19,22.1-5.98Z"/>
        <path class="cls-11" d="M786.55,664.46c.89,1.47,21.01,34.48,21.65,35.54l.02.03.05.04c18.23-.57,32.79-7.47,43.97-16.1l-19.53-30.42c-1.32,5.6-12.09,11.12-46.14,10.9h-.02Z"/>
        <path class="cls-11" d="M831.41,568.19c4.79,22.82,22.55,29.75,22.55,29.75,14.47-1.14,24.22-6.4,30.78-12.78l-11.09-18.68c-2.75,4.23-20.14,7.69-20.14,7.69,0,0-9.58,6.19-22.1-5.98Z"/>
      </g>
      <g>
        <g>
          <path class="cls-3" d="M654.23,254.5c.02,5.27-.13,10.62-.2,15.83-.17,14.67-.53,29.34-1.1,44-.58,14.66-1.37,29.31-2.43,43.94-1.05,14.63-2.37,29.24-4,43.82-5.77,51.73-12.49,115.93-43.46,159.76-1.19,1.67-2.38,3.33-3.58,4.98-2.79,3.82-5.65,7.59-8.58,11.31-2.9,3.69-5.87,7.33-8.91,10.92-3.01,3.57-6.1,7.09-9.23,10.55-3.13,3.46-6.32,6.86-9.56,10.2-3.23,3.34-6.52,6.63-9.86,9.86-3.34,3.23-6.72,6.4-10.15,9.53-3.44,3.12-6.92,6.19-10.44,9.21-3.53,3.03-7.1,6-10.71,8.92-3.62,2.93-7.28,5.8-10.97,8.63-3.71,2.83-7.45,5.62-11.23,8.36-3.78,2.74-7.6,5.44-11.45,8.1-3.87,2.66-7.77,5.28-11.69,7.85-4.2,2.75-8.41,5.44-12.66,8.09-1.54.97-3.31,1.44-5.09,1.36v-20.11h0c1.79.16,3.57-.27,5.12-1.23,3.91-2.44,7.79-4.92,11.65-7.45,3.61-2.37,7.2-4.78,10.76-7.23,3.54-2.44,7.06-4.93,10.55-7.46,3.47-2.52,6.91-5.08,10.32-7.69,3.41-2.6,6.77-5.25,10.1-7.94,3.33-2.69,6.61-5.43,9.86-8.21,3.25-2.78,6.45-5.61,9.61-8.48,3.16-2.88,6.28-5.8,9.35-8.77,3.07-2.98,6.1-6,9.07-9.08,2.99-3.08,5.92-6.21,8.8-9.38,2.89-3.19,5.72-6.43,8.5-9.72,2.8-3.3,5.52-6.65,8.21-10.05,2.69-3.42,5.31-6.89,7.89-10.41,1.11-1.52,2.2-3.05,3.29-4.58,28.51-40.36,34.7-99.45,40.01-147.07,1.5-13.41,2.71-26.86,3.68-40.33.97-13.47,1.7-26.96,2.23-40.45s.86-27,1.02-40.5c.06-4.8.21-9.72.19-14.57-.02-4.89-.04-9.81-1.24-14.57-.64-2.55-1.4-5.75-3.37-7.63-1.69-1.59-4.13-1.43-6.27-1.51-3.62-.15-7.21-.83-10.79-1.37-6.72-1.01-13.42-2.14-20.1-3.34-8.65-1.56-17.26-3.26-25.85-5.08-9.88-2.1-19.7-4.38-29.48-6.85-10.41-2.64-20.75-5.5-31-8.66-10.25-3.16-20.41-6.62-30.41-10.51-3.68-1.43-7.31-2.96-10.95-4.49,0,0-5.44-2.27-10.32-1.72,0,0-.15.01-.43.02v-20.19h0c5.31-.62,11.2,1.85,11.21,1.85,3.95,1.66,7.9,3.32,11.9,4.88,10.86,4.22,21.89,7.98,33.02,11.41,11.15,3.44,22.38,6.55,33.68,9.41,10.63,2.69,21.31,5.16,32.03,7.44,9.33,1.99,18.7,3.83,28.08,5.52,7.27,1.31,14.54,2.53,21.84,3.64,3.89.58,7.79,1.32,11.71,1.48,2.34.09,4.99-.09,6.82,1.65,2.15,2.03,2.97,5.52,3.67,8.28,1.3,5.18,1.32,10.52,1.34,15.83Z"/>
          <g>
            <path class="cls-3" d="M576.42,320.56c5.72-22.13,15.91-20.22,15.91-20.22,6.6,10.25-15.91,20.22-15.91,20.22Z"/>
            <path class="cls-3" d="M566.84,346.94s24.78,6.6,11.68,20.01c-13.1,13.4-34.46,15.43-34.46,15.43,7.48-8.43,22.78-35.44,22.78-35.44Z"/>
            <path class="cls-3" d="M554.56,337.7l-9.24.92s1.01-5.89,3.86-5.69c2.84.2,5.38,4.77,5.38,4.77Z"/>
            <polygon class="cls-3" points="548.16 345.83 542.88 350.5 542.88 345.83 548.16 345.83"/>
            <path class="cls-3" d="M547.17,365.3l-12.38,18.74c-2.91,2.44-4.6-1.08-4.6-1.08,1.86-7.33,16.52-17.35,16.98-17.66Z"/>
            <path class="cls-3" d="M524.7,355.76s-.14,1.69-4.09,8.03c-3.97,6.35-8.19,4.94-8.19,4.94,1.85-6.29,12.28-12.97,12.28-12.97Z"/>
          </g>
          <path class="cls-3" d="M489.25,533.72c.68,2.05,1.95,5.48,4.59,5.55,3.41.09,3.49-4.37,3.43-6.78-.22-8.44-2.8-16.52-2.54-25.15.25-8.72,1.66-17.35,3.31-25.9,1.04-5.41,2.27-10.78,3.69-16.11,2.01-7.53,4.4-14.96,7.19-22.25,5.75-15,13.14-29.51,22.63-42.5,1.51-2.07,3.09-4.11,4.75-6.07.36-.41,1.22-1.85,1.78-2.01,0,0,50.32-14.35,51.4-30.73,1.08-16.38-21.01-21.68-21.01-21.68,1.07-1.52,1.12-5.94,1.12-5.94,39.88-21.28,31.47-41.83,31.47-41.84-.06-.15-1.2-.28-1.39-.31-9.77-1.88-17.66,4.24-22.84,11.95-3.93,5.85-7.02,12.68-8.7,19.53-.43,1.75-.78,3.59-1.87,5.07-.89,1.2-1.92,2.36-3.08,3.32-.12.1-2.56,1.88-2.73,1.54,0,0-4.61-9.28-12.86-7.38-8.26,1.89-10.23,14.82-10.23,14.82-5.68,1.97-6.06,2.56-6.06,2.56-.66-3.99-1.94-8.01-4.05-11.49-3.36-5.55-8.57-8.33-14.93-6.18-5.63,1.91-10.45,6.17-14.42,10.47-.38.41-.74.82-1.09,1.22-1.5,1.72-5.06,5.11-2.67,7.5,2.8,2.79,6.34-2.52,7.99-4.3,2.4-2.59,5.08-5.05,8.01-6.92,3.8-2.42,8.5-3.92,11.31.58,1.22,1.94,1.84,4.21,2.17,6.46.11.77.97,6.12.39,6.47,0,0-15.76,9.34-18.33,18.95-2.57,9.61,7.45,9.82,7.45,9.82,18.55-1.63,20.98-25.53,20.98-25.53.34-.4,2.31-1.62,2.31-1.62l.61,4.6c2.44,6.68,11.11,1.04,11.97.46-1.34,1.12-21.39,17.88-25.31,25.34-4.06,7.71,6.29,11.57,6.29,11.57-10.37,16.19-20,32.47-27.15,50.25-3.28,8.19-6.17,16.54-8.62,25.01-6.2,21.4-12.23,45.75-4.96,67.65ZM629.52,277.96c.02,4.59-.12,9.25-.17,13.79-.16,12.79-.47,25.57-.97,38.34-.5,12.77-1.19,25.54-2.11,38.29s-2.07,25.48-3.49,38.18c-5.03,45.07-10.88,101.01-37.88,139.21-1.02,1.45-2.06,2.9-3.11,4.34-2.43,3.33-4.92,6.61-7.47,9.85-2.53,3.22-5.12,6.39-7.76,9.52-2.63,3.11-5.32,6.17-8.05,9.19-2.73,3.01-5.5,5.97-8.33,8.89-2.81,2.91-5.68,5.77-8.59,8.59-2.91,2.81-5.86,5.58-8.85,8.3-2.99,2.72-6.02,5.4-9.1,8.03-3.08,2.63-6.18,5.22-9.32,7.77-3.16,2.55-6.34,5.05-9.56,7.52-3.23,2.46-6.49,4.89-9.78,7.28-3.3,2.39-6.63,4.74-10,7.05-3.35,2.33-6.75,4.61-10.17,6.85-3.65,2.39-7.33,4.74-11.03,7.05-1.46.91-3.16,1.32-4.85,1.16V215.77c.27-.02.42-.03.42-.03,4.62-.52,9.76,1.63,9.76,1.63,3.45,1.44,6.89,2.89,10.37,4.25,9.46,3.68,19.08,6.95,28.78,9.94,9.71,3,19.5,5.71,29.34,8.2,9.26,2.35,18.57,4.5,27.91,6.49,8.13,1.72,16.29,3.33,24.47,4.8,6.33,1.14,12.66,2.21,19.03,3.17,3.38.51,6.78,1.16,10.21,1.3,2.03.08,4.34-.08,5.94,1.43,1.87,1.77,2.58,4.81,3.19,7.22,1.13,4.51,1.15,9.16,1.17,13.79Z"/>
        </g>
        <path class="cls-3" d="M470.66,154.73c0,6.91-5.6,12.5-12.5,12.5v-25c6.9,0,12.5,5.6,12.5,12.5Z"/>
        <path class="cls-3" d="M458.16,142.23v25c-6.91,0-12.5-5.59-12.5-12.5s5.59-12.5,12.5-12.5Z"/>
        <path class="cls-3" d="M433.72,838.93c-16.29-10.94-40.09-9.08-58.57-7.14-10.77,1.13-21.65,2.67-32.14,5.38-12.48,3.23-25.17,7.03-38.21,6.38-14.43-.71-31.28-2.1-44.62-7.69-14.37-6-28.06-13.62-40.75-22.65-14.87-10.58-26.92-24.72-44.08-31.78-32.56-13.39-70.42-7.31-102.71-21.04-15.5-6.59-30.6-15.55-44.27-25.36-28.76-20.66-10.82-48.24-10.82-48.24l19.08-40.14c.43.99,9.67,21.47,29.3,36.61,11.18,8.63,25.74,15.53,43.97,16.1l.05-.04.02-.03c1.4-1.76,27.25,4.1,30.4,4.68,10.8,1.98,21.54,4.42,31.98,7.83,10.25,3.35,20.25,7.63,29.42,13.34,9.22,5.74,16.01,13.42,24.13,20.4,9.26,7.98,19.53,14.75,31.23,18.56,8.22,2.67,16.81,4.12,25.44,4.51,8.66.38,17.14-1.54,25.76-2.5,14.88-1.66,32.25-3.28,49.41-2.5,26.87,1.22,53.21,8.33,68.71,30.34-2.94,5.29-4.62,11.39-4.62,17.87,0,10.72,4.58,20.37,11.89,27.11Z"/>
        <path class="cls-3" d="M141.1,645.12c-1.6,6.85-5.86,12.69-9.45,18.58,0,0-.01.02-.03.05h-.02c-34.05.21-44.82-5.31-46.14-10.91-1.26-5.35,6.09-10.77,10.04-11.35,8.08-1.2,4.78-6.94,4.78-6.94-34.25-32.96-52.66-8.59-52.66-8.59l-10.98,20.6h-.01c-.69-.27-12.71-5.15-26.75-19.63-11.31-11.68-12.8-30.2-5.03-43.87,5.06-8.89,10.12-17.78,15.18-26.67,0,0,1.03,16.03,13.4,28.06,6.56,6.38,16.31,11.64,30.78,12.78,0,0,32.05,5.73,61.75,20.35,5.91,2.91,11.54,7.18,14.22,13.38,1.93,4.48,2.02,9.46.92,14.16Z"/>
        <path class="cls-3" d="M86.76,567.47h0c-12.52,12.18-22.1,5.99-22.1,5.99,0,0,15.41-13.67,2.2-20.24-13.21-6.57-19.11,7.1-19.11,7.1l-3.23,5.45-11.09,18.68c-12.37-12.03-13.4-28.06-13.4-28.06,2.96-5.21,5.92-10.42,8.89-15.63,8.55-15.03,34.01-20.6,48.21-10.63,6.11,4.28,9.7,11.03,10.44,18.38.73,7.29.33,13.57-.81,18.96Z"/>
        <path class="cls-3" d="M889.81,735.74c-13.67,9.81-28.77,18.77-44.27,25.36-32.29,13.73-70.15,7.65-102.71,21.04-17.16,7.06-29.21,21.2-44.08,31.78-12.69,9.03-26.38,16.65-40.75,22.65-13.34,5.59-30.19,6.98-44.62,7.69-13.04.65-25.73-3.15-38.21-6.38-10.49-2.71-21.37-4.25-32.14-5.38-16.93-1.78-38.34-3.49-54.33,4.66,5.76-6.67,9.25-15.36,9.25-24.87,0-6.96-1.87-13.49-5.14-19.11,15.62-20.85,41.37-27.67,67.63-28.86,17.16-.78,34.53.84,49.41,2.5,8.62.96,17.1,2.88,25.76,2.5,8.63-.39,17.22-1.84,25.44-4.51,11.7-3.81,21.97-10.58,31.23-18.56,8.12-6.98,14.91-14.66,24.13-20.4,9.17-5.71,19.17-9.99,29.42-13.34,10.44-3.41,21.18-5.85,31.98-7.83,3.15-.58,29-6.44,30.4-4.68l.02.03.05.04c18.23-.57,32.79-7.47,43.97-16.1,19.63-15.14,28.87-35.62,29.3-36.61l19.08,40.14s17.94,27.58-10.82,48.24Z"/>
        <path class="cls-3" d="M777.07,645.83c1.6,6.85,5.86,12.69,9.45,18.58,0,0,.01.02.03.05h.02c34.05.21,44.82-5.31,46.14-10.91,1.26-5.35-6.09-10.77-10.04-11.35-8.08-1.2-4.78-6.94-4.78-6.94,34.25-32.96,52.66-8.59,52.66-8.59l10.98,20.6h.01c.69-.27,12.71-5.15,26.75-19.63,11.31-11.68,12.8-30.2,5.03-43.87-5.06-8.89-10.12-17.78-15.18-26.67,0,0-1.03,16.03-13.4,28.06-6.56,6.38-16.31,11.64-30.78,12.78,0,0-32.05,5.73-61.75,20.35-5.91,2.91-11.54,7.18-14.22,13.38-1.93,4.48-2.02,9.46-.92,14.16Z"/>
        <path class="cls-3" d="M831.41,568.18h0c12.52,12.18,22.1,5.99,22.1,5.99,0,0-15.41-13.67-2.2-20.24,13.21-6.57,19.11,7.1,19.11,7.1l3.23,5.45,11.09,18.68c12.37-12.03,13.4-28.06,13.4-28.06-2.96-5.21-5.92-10.42-8.89-15.63-8.55-15.03-34.01-20.6-48.21-10.63-6.11,4.28-9.7,11.03-10.44,18.38-.73,7.29-.33,13.57.81,18.96Z"/>
      </g>
      <g>
        <g>
          <path class="cls-9" d="M457.2,689.49c-1.85-.46-3.57-1.37-5.3-2.17-1.83-.86-3.65-1.76-5.45-2.7-4.66-2.45-8.99-5.48-13.35-8.41-34.23-23.09-65.37-52.04-92.78-82.81-14.99-16.84-29.73-34.54-39.37-55.06-9.89-21.03-15.44-43.81-20.21-66.46-10.68-50.79-16.16-103.36-17.74-155.24-.05-1.93,0-3.87,0-5.8v-56.67c0-2.56.03-5.12,0-7.68-.06-4.67-.27-9.72,2.55-13.73.86-1.29,2.08-2.51,3.51-3.16,1.57-.72,3.59-.69,5.28-.92,3.91-.53,7.81-1.06,11.71-1.63,10.46-1.54,20.9-3.27,31.3-5.21,9.45-1.76,18.86-3.68,28.24-5.79,8.39-1.88,16.74-3.89,25.06-6.06,7.29-1.9,14.55-3.91,21.77-6.04,6.16-1.81,12.29-3.71,18.39-5.7,4.99-1.63,9.96-3.32,14.9-5.07,3.78-1.35,7.55-2.73,11.3-4.14,2.54-.95,5.07-1.93,7.61-2.89,1.24-.47,2.49-1.01,3.78-1.35,5.95-1.52,10.53-1.69,10.53-1.69v20.19h0c-1.2.09-4.82.42-9.26,1.56-1.19.3-2.34.8-3.48,1.23-2.34.89-4.67,1.79-7,2.67-3.46,1.3-6.93,2.57-10.41,3.8-4.55,1.62-9.12,3.17-13.71,4.67-5.62,1.83-11.26,3.58-16.93,5.25-6.65,1.96-13.33,3.81-20.04,5.56-7.66,1.99-15.35,3.85-23.07,5.58-8.63,1.94-17.29,3.71-25.99,5.33-9.57,1.78-19.18,3.38-28.82,4.79-3.58.53-7.18,1.02-10.77,1.51-1.56.21-3.42.18-4.87.84-1.31.6-2.44,1.72-3.23,2.91-2.59,3.69-2.4,8.34-2.34,12.64.03,2.35,0,4.71,0,7.07v52.16c0,1.78-.05,3.56,0,5.34,1.45,47.76,6.49,96.15,16.33,142.9,4.39,20.85,9.5,41.82,18.6,61.18,8.88,18.89,22.45,35.18,36.25,50.67,25.22,28.33,53.89,54.98,85.4,76.23,4.01,2.7,8,5.49,12.29,7.74,1.65.87,3.32,1.7,5.01,2.49,1.59.74,3.17,1.58,4.88,1.99.38.1.77.16,1.16.2v20.11h0c-.58-.01-1.16-.09-1.73-.23Z"/>
          <path class="cls-9" d="M458.93,657.16c-.37-.04-.73-.1-1.09-.19-1.62-.39-3.12-1.19-4.62-1.89-1.6-.75-3.18-1.53-4.75-2.35-4.06-2.14-7.83-4.77-11.63-7.33-29.83-20.12-56.96-45.34-80.84-72.16-13.06-14.66-25.91-30.09-34.31-47.96-8.62-18.33-13.46-38.18-17.61-57.91-9.31-44.26-14.08-90.07-15.45-135.27-.05-1.69,0-3.38,0-5.06v-49.37c0-2.23.02-4.47-.01-6.7-.05-4.06-.23-8.47,2.22-11.96.75-1.12,1.82-2.19,3.06-2.76,1.37-.62,3.13-.59,4.61-.79,3.4-.46,6.8-.93,10.2-1.43,9.12-1.34,18.21-2.85,27.28-4.53,8.23-1.54,16.43-3.22,24.6-5.05,7.31-1.64,14.59-3.39,21.83-5.28,6.35-1.65,12.68-3.41,18.98-5.26,5.36-1.58,10.7-3.24,16.02-4.97,4.34-1.42,8.67-2.89,12.98-4.42,3.29-1.17,6.58-2.37,9.85-3.6,2.21-.84,4.41-1.69,6.62-2.52,1.09-.42,2.18-.89,3.3-1.18,4.19-1.08,7.61-1.38,8.76-1.45v441.39ZM414.54,482.16v-12.98l-33.21-19.68,33.21-19.53v-12.94l-55.31,32.47,55.31,32.66ZM414.54,456.1v-13.01l-10.98,6.47,10.98,6.54ZM414.54,390.84v-13.1l-33.21-19.55,33.21-19.52-10.98-6.57-44.33,26.09,55.31,32.65ZM414.54,364.71v-13.01l-10.98,6.47,10.98,6.54ZM414.54,325.59v-13.01l-10.98,6.47,10.98,6.54ZM414.54,299.64v-13.09l-55.31,32.5,22.1,13.05,10.98-6.51-10.98-6.54,33.21-19.41ZM381.33,423.29l33.21-19.35-33.21-19.62v13.08l10.98,6.54-10.98,6.33v13.02ZM403.56,501.92l10.98-6.68-33.21-19.41v13.01l22.23,13.08ZM359.09,528.37l33.22-20.05-10.98-6.4-22.1,13.08-.14,13.37ZM370.36,495.24v-26.06l-11.13-6.43v39.17l11.13-6.68ZM370.36,429.97v-52.23l-11.13-6.36v64.99l11.13-6.4ZM359.23,345.23l11.13-6.54-11.13-6.47v13.01Z"/>
        </g>
        <path class="cls-9" d="M64.66,573.46s-17.39-3.46-20.14-7.69l3.23-5.45s5.9-13.67,19.11-7.1c13.21,6.57-2.2,20.24-2.2,20.24Z"/>
        <path class="cls-9" d="M95.5,641.49c-3.95.58-11.3,6-10.04,11.35l-19.53,30.42c-19.63-15.14-28.87-35.62-29.3-36.61h0s.01-.09.01-.09l10.98-20.6s18.41-24.37,52.66,8.59c0,0,3.3,5.74-4.78,6.94Z"/>
        <path class="cls-9" d="M853.51,574.17s17.39-3.46,20.14-7.69l-3.23-5.45s-5.9-13.67-19.11-7.1c-13.21,6.57,2.2,20.24,2.2,20.24Z"/>
        <path class="cls-9" d="M822.67,642.2c3.95.58,11.3,6,10.04,11.35l19.53,30.42c19.63-15.14,28.87-35.62,29.3-36.61h0s-.01-.09-.01-.09l-10.98-20.6s-18.41-24.37-52.66,8.59c0,0-3.3,5.74,4.78,6.94Z"/>
      </g>
      <path class="cls-2" d="M464.5,805.63h0"/>
      <path class="cls-2" d="M462.67,818.64s-.01,0-.02,0c0,0,0,0,0-.01,0,0,0,0,.01.01Z"/>
      <path class="cls-2" d="M438.51,829.91c-.26.05-.43-.04-.43-.04,0,0,.18-.39.43.04Z"/>
      <g>
        <path class="cls-12" d="M458.16,167.23c6.9,0,12.5-5.6,12.5-12.5s-5.6-12.5-12.5-12.5-12.5,5.59-12.5,12.5,5.59,12.5,12.5,12.5ZM362.26,160.24c56.4-32.94,136.94-32.94,193.35-.01-3.26,10.84-8.34,21.08-15.02,30.23-49.21-23.05-114.11-23.05-163.33,0-6.59-9.04-11.71-19.23-15-30.2h0Z"/>
        <g>
          <path class="cls-12" d="M763.64,239.6c23.26,11.62,48.6,40.92,20.39,78.58l-1.74,2.03c-8.48,8.28-24.75,5.44-29.53-5.64,31.19-10.9,37.63-55.76,10.88-74.97Z"/>
          <path class="cls-12" d="M769.56,554.17c-.42,29.52-7.27,64.76-34.89,81.37-21.01,10.33-61.16,12.49-68.57-17.15,3.77,3.72,8.26,6.85,13.08,9.1,1.09.53,2.21,1,3.35,1.44,31.77,13.57,72.78-14.51,64.61-50.37l.02-.02c8.69-12.61,13.92-38.69,4.42-61.03,2.3,2.69,13.08,17.64,14.06,22.19,1.62,4.71,2.94,9.55,3.92,14.47Z"/>
          <path class="cls-12" d="M707.03,462.68c11.6,13.37,33.31,49.67,32.32,74.85-.38,9.75-12.14,15.81-20.32,10.61,0-.05.03-.1.03-.15,8.2-28.41,3.78-60.31-12.03-85.31Z"/>
          <path class="cls-12" d="M750.39,432.86c-20.01,13.63-38.33,2.47-48.96-38.54,4.41,1.81,8.97,3.24,13.51,4.32.01,0,.03.01.04.01.06,0,.12.03.18.04.29,20.17,28.56,27.36,38.31,9.53,1.12,1.95,1.91,4.07,2.35,6.29v.02c.9,4.27.26,9.09-1.65,12.98-.97,1.97-2.25,3.79-3.78,5.35Z"/>
          <path class="cls-12" d="M638.01,654.96c41.32,25.12,100.55,18.43,132.5-60.07-4.58,31.08-22.06,57.11-46.35,76.02h-.02c-5.98,6.24-6.55,17.52-1.24,24.35-14.39,1.27-24.06-16.26-15.55-27.76-2.97,3.31-6.59,5.99-10.65,7.83h0c-21.07,8.73-39.01-9.84-55.88,20.08-10.2-10.38-11.45-28.77-2.81-40.45Z"/>
          <path class="cls-12" d="M716.96,222.86c-1.68-20.02-28.06-29.08-44.66-30.43v-.02c22.15-.57,93.1,6.26,57.68,61.24-10.32,16.45-32.84,23.38-50.85,16.5-25.76-14.52,2.24-50.42,22.59-28.91,8.78-1.65,15.25-9.35,15.24-18.38Z"/>
          <path class="cls-12" d="M642.89,114.53c27.19-1.15,51.65,19.24,51.74,46.84,0,3.65-.45,7.27-1.32,10.78-.12-11.35-4.52-21.94-12.08-30.18h-.01c-2.56-2.81-5.51-5.32-8.66-7.46-.13,3.86-1.58,7.49-4.03,10.38-2.89-10.86-9.78-20.17-19-26.5-.07-.06-.15-.11-.22-.16-.01,0-.02,0-.02,0-2.05-1.37-4.19-2.61-6.4-3.69Z"/>
          <path class="cls-12" d="M665.87,536.64c-10.89.49-20.94,4.22-29.53,10.17,5.76-6.77,4.55-14.49.98-18.9,12.54,2.36,24.41-8.39,23.28-21.11-7.02,5.77-12.46-7.79-3.35-8.43,8.92,3,12.51,14.44,13.77,22.82h.01c.11,1.11.16,2.24.16,3.36,0,4.14-.73,8.2-2.16,12.03-1.06-.01-2.13,0-3.16.06Z"/>
          <path class="cls-12" d="M622.08,669.25c.26-.3,7.44-8.12,7.72-8.43.01,0,4.15-6,4.17-6h0c.06-.09.11-.15.14-.22.27-.38.5-.74.69-1.03.01-.02.29-.53.3-.55-1.12,2.88-2.48,5.8-4.08,8.69-9.47,17.11-26.84,33.12-44.8,34.34-6.19.42-12.45-.91-18.48-4.57,1.54-1.5,3.36-2.69,5.34-3.53-5.36-2.77-8.6-9.05-7.6-15.09,4.57-1.74,10.37-.79,14.1,2.32.35-1.73,1.02-3.38,1.96-4.86,3.69,3.4,7.98,6.08,12.84,7.34-.06,0-.11,0-.17-.02.06.01.13.02.19.03,0,0,0,0,.02,0,1.25.33,2.55.57,3.85.68,3.4.34,6.78-.09,10.02-1.07,0,0,.01,0,.01-.01,5.12-1.55,9.88-4.49,13.78-8.02Z"/>
          <path class="cls-12" d="M818.06,273.25c-38.37-66.39-118.95-104.13-194.58-90.96,1.19-1.08,2.28-2.26,3.28-3.51.01,0,.02,0,.03-.01h.01c1.6-.3,3.21-.59,4.83-.85,4.5-.73,9.04-1.28,13.59-1.66,4.55-.39,9.1-.59,13.66-.63,4.56-.04,9.12.09,13.66.39,4.55.29,9.09.75,13.6,1.38,4.5.62,9,1.4,13.46,2.34,4.46.94,8.88,2.04,13.27,3.29,3.64,1.04,7.26,2.2,10.84,3.46.75.25,1.49.51,2.23.78,3.8,1.38,7.56,2.88,11.26,4.49,3.7,1.62,7.36,3.34,10.97,5.18,3.6,1.84,7.14,3.79,10.61,5.85,3.48,2.06,6.89,4.23,10.23,6.51,3.33,2.28,6.6,4.66,9.78,7.15,2,1.56,3.96,3.19,5.87,4.86,5.16,4.5,10.02,9.34,14.79,14.25,1.89,1.95,3.75,3.97,5.66,5.93,2.62,2.68,5.34,5.25,8.4,7.39,3.34,2.33,6.94,4.27,10.7,5.83,2.8,1.16,5.71,2.09,8.67,2.77.75.18,8.87,1.72,8.94,1.32-1.77,10.69-13.47,17.77-23.76,14.45Z"/>
          <path class="cls-12" d="M632.27,633.34c7.77,5.06,2.83,19.68,2.83,19.68-.01.02-.29.53-.3.55-.19.29-.42.65-.69,1.03-.03.07-.08.13-.14.21h0s-4.16,6-4.17,6.01c-.28.31-7.46,8.13-7.72,8.43-3.9,3.53-8.66,6.47-13.78,8.02,20.24-10.89,5.39-32.87,5.39-32.87,0,0-8.72-8.94-20.02-6.41,0,0,7.42,9.94,0,13.94-7.41,4-15.88-3.06-15.88-3.06,0,0,5.19-2.87,6.95-7.67,0,0-17.07-1.45-9.54-13.71,7.53-12.26,21.42-10.85,21.42-10.85,0,0-6.12,7.05-7.18,12.29,0,0,10.06,5.77,22.23-8.88,0,0,5.47,6.7,1.23,10.76,0,0,11.6-2.52,19.37,2.53Z"/>
          <path class="cls-12" d="M628.01,117.28c4.81,2.96,8.15,8.09,8.95,13.69.15,1.16.25,2.38.17,3.56-3.5-19.9-48.63-12-41.42,8.83-.75,2.85-.55,6.07.51,8.8.6,1.59,1.48,3.05,2.56,4.36.02.02.04.03.04.05.47.56,1,1.1,1.55,1.59.16.15.34.29.5.43.5.42,1.03.8,1.59,1.16.44.28.89.54,1.35.77l-.56,1.05c-1.4-.62-2.94-.99-4.16-1.16-3.99,2.82-9.83,4.07-13.84.22,3.08,1.1,6.89.29,9.27-1.94-2.01,1.53-7.2-.98-8.67-2.14-5.47-4.34-5.42-14.33-3.89-20.43,1.91-7.62,6.91-14.31,13.43-18.62,7.54-3.23,16.96-4.45,25.07-2.96,0,0,.02,0,.04,0,2.64.44,5.25,1.26,7.51,2.73Z"/>
          <path class="cls-12" d="M616.11,149.92c5.05.04,10.1,2.34,13.18,6.4,3.27,4.32,3.58,9.19,2.19,13.8,0,.01-.01.03-.01.04-.15.5-.33.99-.51,1.48-.74-3.3-2.75-6.4-5.38-8.52-2.2-1.78-4.91-2.94-7.71-3.29-.82-.1-1.7-.11-2.52-.07-1.72.07-3.43.4-5.02,1.06.61.56,1.15,1.22,1.61,1.92.57.89.99,1.87,1.25,2.9.27,1.02.37,2.08.31,3.14s-.3,2.11-.7,3.09c-.41,1.01-.98,1.89-1.67,2.72-1.44,1.72-3.57,2.99-5.51,4.07-3.12,1.73-6.64,2.72-10.18,3.03-3.58.32-7.22-.05-10.66-1.08-3.4-1.02-6.64-2.72-9.32-5.05-.25-.42-.49-.85-.72-1.28-.29-.56-.58-1.13-.85-1.7-.14-.29-.28-.58-.41-.88,2.05,3.37,5.74,5.8,9.55,6.6,7.56,1.59,15.35-1.61,20.74-6.81,1.37-1.33,2.97-2.76,3.23-4.77.32-2.54-1.53-4.17-3.75-5.15l.56-1.05c.52.27,1.05.51,1.59.72-.2-.93-.27-1.96-.16-2.91.54-5.76,5.57-8.46,10.87-8.41Z"/>
          <path class="cls-12" d="M559.87,132.12c-10.97,14.85-34.18,14.56-44.77-.54,3.85-1.35,7.07-4.05,9.1-7.52,11.1,10.25,29.65,5.4,34.44-8.73.88,5.53,1.29,11.14,1.23,16.79Z"/>
          <path class="cls-12" d="M457.47,30.26c4.07-.06,8.15.12,12.21.55,25.07,2.62,49.33,14.52,66.88,35.77-5.84,6.45-6.85,17.37-2.1,24.88.15.24.31.47.44.71,6.76,10.85,1.58,26-10.02,30.63,5.54-11.34-3.08-24.8-15.54-24.68-10.76-.19-19.29,10.39-16.84,20.9-11.13-7.38-9.75-24.49,2.4-29.98h.02c.63-.3,1.3-.55,1.96-.76,16.2-3.52,22.26-24.25,10.37-35.95-8.11-8.45-22.72-8.24-30.61.4h0c-2.24,2.36-3.96,5.28-4.93,8.45,1.69-6.3-.78-13.5-5.65-17.39t-.01-.01l-.02-.02c-.87-.49-1.69-1.07-2.47-1.72,0,0,0-.01-.01-.01,0-.01-.01-.01-.01-.01-3.48-2.94-5.68-7.07-6.07-11.76Z"/>
          <path class="cls-12" d="M473.26,108.19c-.76-4.6-5.67-7.95-10.34-6.58,1.54-4.75,4.59-8.87,8.62-11.67,4.16-2.67,9.24,2.43,6.17,6.64-2.4,3.6-3.19,7.6-2.73,11.38l-1.72.23Z"/>
          <path class="cls-12" d="M463.71,117.74c4.97.9,9.69-3.09,9.65-8.15.01-.48-.02-.94-.1-1.4l1.72-.23c1.08,8.74,8.88,16.33,19,15.2.86,1.7,2,3.23,3.35,4.55-11.59,7.98-28.38,2.78-33.62-9.97Z"/>
          <path class="cls-12" d="M457.47,19.29c-.21,0-.42.01-.63.02-4.35-.42-8.45-2.81-11.09-6.78-2.3-3.49-2.9-8.5-1.48-12.53,4.53,13.25,23.36,13.25,27.89,0-.08.23.28,1,.34,1.26,1.43,6.23-1.11,12.62-6.61,15.95-2.25,1.36-4.66,2.06-7.05,2.15h-.1c-.42-.05-.84-.07-1.27-.07Z"/>
          <path class="cls-12" d="M439.18,108.35c.57-3.8-.12-7.83-2.46-11.47,0-.01-.02-.03-.03-.04-.17-.27-.35-.54-.54-.79-2.15-3.81,1.98-8.32,5.98-6.52,4.33,2.79,7.66,6.97,9.33,11.94-4.69-.98-9.28,2.56-9.78,7.13l-2.5-.25Z"/>
          <path class="cls-12" d="M439.18,108.35l2.5.25c-.03.33-.05.66-.04.99-.03,4.89,4.29,8.74,9.13,8.23-5.27,12.87-22.26,18-33.83,9.83,1.33-1.3,2.45-2.81,3.31-4.49,9.89,1.15,17.65-6.22,18.93-14.81Z"/>
          <path class="cls-12" d="M445.25,31.18c4.01-.55,8.05-.86,12.09-.92-.39,4.78-2.69,9-6.28,11.94-.01,0-.01.01-.02.01,0,.01,0,.01,0,.01-.01,0-.02.02-.03.02-.08.05-.14.1-.22.15-5.67,3.99-9.11,10.47-7.82,17.53-3.11-8.21-10.93-13.83-20.01-13.85-24.7.5-29.37,34.52-6.1,41.85.73.19,1.46.42,2.15.71h0c.26.11.52.22.77.34h0c12.37,5.63,13.48,23.14,1.88,30.28,2.63-10.58-5.91-21.3-16.78-21.13-12.28-.14-20.93,13.02-15.7,24.33-11.1-4.93-15.83-19.74-9.26-30.28,4.72-6.88,4.57-16.98-.18-23.68,16.92-21.52,40.68-33.99,65.5-37.31Z"/>
          <path class="cls-12" d="M358.09,135.8c-.28-5.92-.03-11.86.73-17.72,5.76,11.51,21.63,15.23,31.91,7.08,2.09,3.02,5.13,5.34,8.69,6.53-9.25,13.25-29.53,15.39-41.33,4.11Z"/>
          <path class="cls-12" d="M318.24,160.81c-1.22.17-2.76.54-4.16,1.16l-.56-1.05c.46-.23.91-.49,1.35-.77.55-.36,1.09-.74,1.59-1.16.16-.14.34-.28.5-.43.55-.49,1.08-1.03,1.55-1.59,0-.02.02-.03.04-.05,1.08-1.31,1.96-2.77,2.56-4.36,1.06-2.73,1.26-5.95.51-8.8,7.21-20.83-37.92-28.73-41.42-8.83-.08-1.18.02-2.4.17-3.56.8-5.6,4.14-10.73,8.95-13.69,2.26-1.47,4.86-2.29,7.51-2.73.01-.01.03-.01.04-.01,8.11-1.49,17.53-.27,25.07,2.96,6.52,4.31,11.52,11,13.43,18.62,1.53,6.1,1.58,16.09-3.89,20.43-1.47,1.16-6.66,3.67-8.67,2.14,2.37,2.23,6.19,3.04,9.27,1.94-4.01,3.85-9.85,2.6-13.84-.22Z"/>
          <path class="cls-12" d="M305.66,620.45c12.17,14.65,22.23,8.88,22.23,8.88-1.06-5.24-7.18-12.29-7.18-12.29,0,0,13.89-1.41,21.42,10.85,7.53,12.26-9.54,13.71-9.54,13.71,1.75,4.8,6.95,7.67,6.95,7.67,0,0-8.47,7.06-15.88,3.06-7.42-4,0-13.94,0-13.94-11.3-2.53-20.02,6.41-20.02,6.41,0,0-14.85,21.98,5.39,32.87-5.12-1.55-9.88-4.49-13.78-8.02-.26-.3-7.44-8.12-7.72-8.43-.01-.01-4.15-6-4.17-6h0c-.06-.09-.11-.15-.14-.22-.27-.38-.5-.74-.69-1.03-.01-.02-.29-.53-.3-.55,0,0-4.94-14.62,2.83-19.68,7.77-5.05,19.36-2.53,19.36-2.53-4.23-4.06,1.24-10.76,1.24-10.76Z"/>
          <path class="cls-12" d="M313.56,171.89c5.39,5.2,13.18,8.4,20.74,6.81,3.81-.8,7.5-3.23,9.54-6.6-.12.3-.26.59-.4.88-.27.57-.56,1.14-.85,1.7-.23.43-.47.86-.72,1.28-2.68,2.33-5.92,4.03-9.32,5.05-3.44,1.03-7.08,1.4-10.66,1.08-3.55-.31-7.06-1.3-10.18-3.03-1.94-1.08-4.07-2.35-5.51-4.07-.69-.83-1.26-1.71-1.67-2.72-.4-.98-.64-2.03-.7-3.09s.04-2.12.31-3.14c.26-1.03.68-2.01,1.25-2.9.45-.7,1-1.36,1.61-1.92-1.59-.66-3.3-.99-5.02-1.06-.82-.04-1.7-.03-2.52.07-2.8.35-5.51,1.51-7.71,3.29-2.63,2.12-4.64,5.22-5.38,8.52-.19-.49-.36-.98-.51-1.48-1.4-4.62-1.1-9.51,2.18-13.84,3.08-4.06,8.13-6.36,13.18-6.4,5.3-.05,10.33,2.65,10.87,8.41.11.95.04,1.98-.17,2.91.55-.21,1.08-.45,1.6-.72l.56,1.05c-2.22.98-4.07,2.61-3.75,5.15.26,2.01,1.86,3.44,3.23,4.77Z"/>
          <path class="cls-12" d="M293.84,182.69c-75.62-13.17-156.2,24.57-194.57,90.96-10.29,3.32-21.99-3.76-23.76-14.45.07.4,8.19-1.14,8.94-1.32,2.96-.68,5.87-1.61,8.67-2.77,3.76-1.56,7.36-3.5,10.7-5.83,3.06-2.14,5.78-4.71,8.4-7.39,1.91-1.96,3.77-3.98,5.66-5.93,4.77-4.91,9.63-9.75,14.79-14.25,1.91-1.67,3.87-3.3,5.87-4.86,3.18-2.49,6.45-4.87,9.78-7.15,3.34-2.28,6.75-4.45,10.23-6.51,3.47-2.06,7.01-4.01,10.61-5.85,3.6-1.84,7.26-3.56,10.97-5.18,3.7-1.61,7.46-3.11,11.26-4.49.74-.27,1.48-.53,2.23-.78.25-.1.51-.18.76-.27,3.33-1.16,6.7-2.22,10.08-3.19,4.38-1.25,8.81-2.35,13.27-3.29,4.46-.94,8.95-1.72,13.46-2.34,4.51-.63,9.05-1.09,13.6-1.38,4.54-.3,9.1-.43,13.66-.39,4.56.04,9.11.24,13.66.63,4.55.38,9.09.93,13.59,1.66,1.62.26,3.22.55,4.83.85h.01s.02,0,.03,0c1,1.25,2.09,2.43,3.27,3.51Z"/>
          <path class="cls-12" d="M322.93,678.07c.06,0,.13-.02.19-.03-.06,0-.11.02-.17.02,4.86-1.26,9.15-3.94,12.84-7.34.94,1.48,1.61,3.13,1.96,4.86,3.73-3.11,9.53-4.06,14.09-2.32,1,6.04-2.23,12.32-7.59,15.09,1.98.84,3.8,2.03,5.34,3.53-6.03,3.66-12.29,4.99-18.48,4.57-17.96-1.22-35.33-17.23-44.8-34.34-1.6-2.89-2.97-5.81-4.08-8.69,0,.02.29.53.3.55.19.29.42.65.69,1.03.03.07.08.13.14.21h0s4.16,6,4.17,6.01c.28.31,7.46,8.13,7.72,8.43,3.9,3.53,8.66,6.47,13.78,8.02,0,0,0,0,0,0,3.24.98,6.62,1.41,10.02,1.07,1.3-.11,2.6-.35,3.85-.68.01.01.02,0,.02,0Z"/>
          <path class="cls-12" d="M280.99,547.21c-8.59-5.95-18.65-9.68-29.53-10.17-1.04-.06-2.1-.07-3.16-.06-1.43-3.83-2.16-7.89-2.16-12.03,0-1.12.05-2.25.16-3.36h.01c1.26-8.38,4.85-19.82,13.77-22.82,9.1.64,3.67,14.2-3.35,8.43-1.13,12.72,10.74,23.47,23.28,21.11-3.57,4.41-4.78,12.13.98,18.9Z"/>
          <path class="cls-12" d="M224.02,172.55c-.87-3.51-1.32-7.13-1.32-10.78.09-27.6,24.55-47.99,51.74-46.84-2.21,1.08-4.35,2.32-6.4,3.69,0,.01-.01.01-.02.01-.07.05-.15.1-.22.16-9.22,6.33-16.12,15.64-19,26.5-2.46-2.89-3.9-6.52-4.03-10.38-3.15,2.14-6.1,4.65-8.66,7.46h-.01c-7.56,8.24-11.96,18.83-12.08,30.18Z"/>
          <path class="cls-12" d="M245.02,192.81v.02c-16.6,1.35-42.97,10.41-44.65,30.43-.01,9.03,6.46,16.73,15.24,18.38,20.35-21.51,48.35,14.39,22.59,28.91-18.01,6.88-40.53-.05-50.85-16.5-35.42-54.98,35.53-61.81,57.67-61.24Z"/>
          <path class="cls-12" d="M146.82,595.29c31.94,78.5,91.18,85.19,132.5,60.07,8.64,11.68,7.39,30.07-2.81,40.45-16.87-29.92-34.81-11.35-55.88-20.07h0c-4.06-1.85-7.68-4.53-10.65-7.84,8.51,11.5-1.16,29.03-15.56,27.76,5.32-6.83,4.75-18.11-1.24-24.35h0c-24.29-18.91-41.77-44.94-46.35-76.02Z"/>
          <path class="cls-12" d="M210.3,463.08c-15.81,25-20.23,56.9-12.04,85.31,0,.05.03.1.04.15-8.18,5.2-19.94-.86-20.32-10.61-.99-25.18,20.72-61.48,32.32-74.85Z"/>
          <path class="cls-12" d="M215.9,394.72c-10.63,41.01-28.95,52.17-48.96,38.54-1.53-1.56-2.81-3.38-3.78-5.35-1.91-3.89-2.55-8.71-1.65-12.98v-.02c.44-2.22,1.23-4.34,2.35-6.29,9.75,17.83,38.02,10.64,38.31-9.53.06-.01.12-.03.18-.04.01,0,.03,0,.04,0,4.54-1.08,9.1-2.51,13.51-4.32Z"/>
          <path class="cls-12" d="M170.18,578.96c-8.16,35.86,32.85,63.94,64.62,50.37,1.14-.44,2.26-.91,3.35-1.44,4.82-2.25,9.31-5.38,13.08-9.1-7.41,29.64-47.56,27.48-68.57,17.15-27.62-16.61-34.48-51.85-34.9-81.37.99-4.92,2.31-9.76,3.93-14.47.98-4.55,11.76-19.5,14.06-22.19-9.5,22.34-4.27,48.42,4.42,61.03v.02Z"/>
          <path class="cls-12" d="M164.57,314.97c-4.78,11.08-21.05,13.92-29.53,5.64l-1.74-2.03c-28.21-37.66-2.88-66.96,20.38-78.58-26.74,19.21-20.3,64.07,10.89,74.97Z"/>
        </g>
      </g>
      <g>
        <g>
          <path class="cls-8" d="M493.84,539.27c-2.64-.07-3.91-3.5-4.59-5.55-7.27-21.9-1.24-46.25,4.96-67.65,2.45-8.47,5.34-16.82,8.62-25.01,7.15-17.78,16.78-34.06,27.15-50.25,0,0-10.35-3.86-6.29-11.57,3.92-7.46,23.97-24.22,25.31-25.34-.86.58-9.53,6.22-11.97-.46l-.61-4.6s-1.97,1.22-2.31,1.62c0,0-2.43,23.9-20.98,25.53,0,0-10.02-.21-7.45-9.82,2.57-9.61,18.33-18.95,18.33-18.95.58-.35-.28-5.7-.39-6.47-.33-2.25-.95-4.52-2.17-6.46-2.81-4.5-7.51-3-11.31-.58-2.93,1.87-5.61,4.33-8.01,6.92-1.65,1.78-5.19,7.09-7.99,4.3-2.39-2.39,1.17-5.78,2.67-7.5.35-.4.71-.81,1.09-1.22,3.97-4.3,8.79-8.56,14.42-10.47,6.36-2.15,11.57.63,14.93,6.18,2.11,3.48,3.39,7.5,4.05,11.49,0,0,.38-.59,6.06-2.56,0,0,1.97-12.93,10.23-14.82,8.25-1.9,12.86,7.37,12.86,7.38.17.34,2.61-1.44,2.73-1.54,1.16-.96,2.19-2.12,3.08-3.32,1.09-1.48,1.44-3.32,1.87-5.07,1.68-6.85,4.77-13.68,8.7-19.53,5.18-7.71,13.07-13.83,22.84-11.95.19.03,1.33.16,1.39.31,0,0,8.41,20.56-31.47,41.84,0,0-.05,4.42-1.12,5.94,0,0,22.09,5.3,21.01,21.68-1.08,16.38-51.4,30.73-51.4,30.73-.56.16-1.42,1.6-1.78,2.01-1.66,1.96-3.24,4-4.75,6.07-9.49,12.99-16.88,27.5-22.63,42.5-2.79,7.29-5.18,14.72-7.19,22.25-1.42,5.33-2.65,10.7-3.69,16.11-1.65,8.55-3.06,17.18-3.31,25.9-.26,8.63,2.32,16.71,2.54,25.15.06,2.41-.02,6.87-3.43,6.78ZM576.42,320.56s22.51-9.97,15.91-20.22c0,0-10.19-1.91-15.91,20.22ZM578.52,366.95c13.1-13.41-11.68-20.01-11.68-20.01,0,0-15.3,27.01-22.78,35.44,0,0,21.36-2.03,34.46-15.43ZM545.32,338.62l9.24-.92s-2.54-4.57-5.38-4.77c-2.85-.2-3.86,5.69-3.86,5.69ZM542.88,350.5l5.28-4.67h-5.28v4.67ZM534.79,384.04l12.38-18.74c-.46.31-15.12,10.33-16.98,17.66,0,0,1.69,3.52,4.6,1.08ZM520.61,363.79c3.95-6.34,4.09-8.03,4.09-8.03,0,0-10.43,6.68-12.28,12.97,0,0,4.22,1.41,8.19-4.94Z"/>
          <polygon class="cls-8" points="414.54 469.18 414.54 482.16 359.23 449.5 414.54 417.03 414.54 429.97 381.33 449.5 414.54 469.18"/>
          <polygon class="cls-8" points="414.54 443.09 414.54 456.1 403.56 449.56 414.54 443.09"/>
          <polygon class="cls-8" points="414.54 377.74 414.54 390.84 359.23 358.19 403.56 332.1 414.54 338.67 381.33 358.19 414.54 377.74"/>
          <polygon class="cls-8" points="414.54 351.7 414.54 364.71 403.56 358.17 414.54 351.7"/>
          <polygon class="cls-8" points="414.54 312.58 414.54 325.59 403.56 319.05 414.54 312.58"/>
          <polygon class="cls-8" points="414.54 286.55 414.54 299.64 381.33 319.05 392.31 325.59 381.33 332.1 359.23 319.05 414.54 286.55"/>
          <polygon class="cls-8" points="414.54 403.94 381.33 423.29 381.33 410.27 392.31 403.94 381.33 397.4 381.33 384.32 414.54 403.94"/>
          <polygon class="cls-8" points="414.54 495.24 403.56 501.92 381.33 488.84 381.33 475.83 414.54 495.24"/>
          <polygon class="cls-8" points="392.31 508.32 359.09 528.37 359.23 515 381.33 501.92 392.31 508.32"/>
          <polygon class="cls-8" points="370.36 469.18 370.36 495.24 359.23 501.92 359.23 462.75 370.36 469.18"/>
          <polygon class="cls-8" points="370.36 377.74 370.36 429.97 359.23 436.37 359.23 371.38 370.36 377.74"/>
          <polygon class="cls-8" points="370.36 338.69 359.23 345.23 359.23 332.22 370.36 338.69"/>
        </g>
        <path class="cls-8" d="M648.83,565.73c12.07,1.81,21.27,12.19,21.54,24.51-16.29-9.25-38.31,4.27-37.24,23.08h0c.21,12.66,10.2,23.48,22.83,24.67-1.01-2.18-1.42-4.77-1.17-7.18,0,0,0-.01.01-.01.56-6.13,5.25-11.25,11.3-12.41,7.41,29.64,47.56,27.48,68.57,17.15,27.62-16.61,34.47-51.85,34.89-81.37,1.19,5.75,1.91,11.6,2.17,17.45h.01v.03c.37,7.69-.05,15.67-1.23,23.24-31.95,78.5-91.18,85.19-132.5,60.07-.99-.62-1.96-1.27-2.91-1.94,0,0,4.94-14.62-2.83-19.68-7.77-5.05-19.37-2.53-19.37-2.53,4.24-4.06-1.23-10.76-1.23-10.76-12.17,14.65-22.23,8.88-22.23,8.88,1.06-5.24,7.18-12.29,7.18-12.29,0,0-13.89-1.41-21.42,10.85-7.53,12.26,9.54,13.71,9.54,13.71-1.76,4.8-6.95,7.67-6.95,7.67,0,0,8.47,7.06,15.88,3.06,7.42-4,0-13.94,0-13.94,11.3-2.53,20.02,6.41,20.02,6.41,2.16,12.98-8.71,25.08-21.86,24.25-15.12-.36-28.6-12.46-30.62-27.44h0c-1.48-9.59,1.58-19.56,8.14-26.64h.01c9.25-10.67,27.01-13.67,39.28-6.46-.41-2.94-.66-5.91-.7-8.9v-.04c.5-20.77,11.62-40.77,28.4-52.36,8.59-5.95,18.64-9.68,29.53-10.17,1.03-.06,2.1-.07,3.16-.06.1,0,.19,0,.29.02,8.01.3,15.82,2.57,22.64,6.51.4.23.79.47,1.18.71.44.27.87.55,1.3.83.39.26.77.52,1.15.78.12.08.23.16.34.24,1.63,1.17,3.2,2.44,4.66,3.81.73.68,1.44,1.39,2.12,2.12.04.04.09.08.13.12.01,0,.02,0,.02.02,26.25,24.35,1.99,70.08-33.05,61.7-9.48-2.06-9.26-16.71.24-18.5,5.88-1.48,11.88,3.45,11.64,9.48,23.34-21.99-7.37-58.21-32.86-38.69Z"/>
        <path class="cls-8" d="M688.98,387.85c3.88,2.54,8.08,4.69,12.45,6.47,10.63,41.01,28.95,52.17,48.96,38.54,2.62-.04,5.14-.85,7.28-2.31v.02c3.68-2.5,5.94-6.69,5.89-11.23,5.15,3.19,8.67,8.51,9.52,14.57,8.14-1.47,14.63-7.76,16.37-15.83,11.95,10.68,10.33,32.72-3.02,41.54-1.57,1.14-3.16,2.07-4.9,2.83,2.22.54,4.26,1.64,5.92,3.19-.2,3.44-1.7,6.61-4.16,8.95h0c-4.69,4.97-12.01,3.05-17.94,4.44-1.48.17-2.96.3-4.45.38,8.58,3.62,10.88,16.52,4.03,22.88-3.94-4.81-11.79-6.31-17.26-3.3,9.67,2.69,18.14,8.72,23.84,16.97,5.18,7.4,7.9,16.47,7.67,25.65-4.29,1.88-9.96,1.07-13.53-1.91-.98-4.55-11.76-19.5-14.06-22.19,9.5,22.34,4.27,48.42-4.42,61.03l-.02.02c-2.68,5.35-7.84,7.77-13.04,7.77-7.6,0-15.33-5.18-15.7-13.95,13.22-6.22,21.7-20.19,20.95-34.85.99-25.18-20.72-61.48-32.32-74.85-1.91-3.1-4.35-6.73-6.58-9.6h0c-.72-.86-1.42-1.73-2.1-2.61,0-.02-.02-.03-.03-.04-13.77-17.3-18.76-43.22-12.37-64.64,1,.71,2.01,1.39,3.03,2.06Z"/>
        <path class="cls-8" d="M637.32,527.91c3.57,4.41,4.78,12.13-.98,18.9-16.78,11.59-27.9,31.59-28.4,52.36-1.34-45.54,32.84-54.02,29.38-71.26Z"/>
        <path class="cls-8" d="M631.48,170.12c1.39-4.61,1.08-9.48-2.19-13.8-3.08-4.06-8.13-6.36-13.18-6.4-5.3-.05-10.33,2.65-10.87,8.41-.11.95-.04,1.98.16,2.91-.54-.21-1.07-.45-1.59-.72-.46-.23-.91-.49-1.35-.77-.56-.36-1.09-.74-1.59-1.16-.16-.14-.34-.28-.5-.43-.55-.49-1.08-1.03-1.55-1.59,0-.02-.02-.03-.04-.05-1.08-1.31-1.96-2.77-2.56-4.36-1.06-2.73-1.26-5.95-.51-8.8.6-2.37,1.75-4.53,3.37-6.35h.01c16.44-16.56,36.95,7,34.45,24.06v.04s-.02.02-.02.02c-.18,3.04-.99,6.17-2.04,8.99Z"/>
        <path class="cls-8" d="M586.22,696.05c17.96-1.22,35.33-17.23,44.8-34.34-19.24,45.98-72.13,73.55-120.28,61.9h0c-5.12-1.06-10.8-.82-15.78.7-3.79,1.14-7.33,2.97-10.44,5.38-3.1,2.4-5.75,5.35-7.81,8.7-4.31-13.1,9.3-26.32,22.22-21.72-3.42-1.46-6.33-3.98-8.23-7.18,3.02-2.2,6.7-3.4,10.51-3.36,6.81-5.65,18.31-4.59,23.95,2.25.09-1.72.46-3.39,1.05-4.99,13.63,5.15,30.26,2.89,41.93-5.83,3.34,1.18,7.25,1.54,10.78.98,2.48-.38,5.11-1.33,7.3-2.49Z"/>
        <path class="cls-8" d="M601.13,113.12c38.85-17.9,90.51-1.56,111.96,35.01,0,0,.01.03.02.04v-.02h.01c.34.59.67,1.15,1.02,1.71,5.31,8.63,12.5,16.04,20.99,21.58,3.01,1.98,6.18,3.71,9.47,5.2,2.68,1.21,5.45,2.24,8.28,3.1-3.9,4.57-10.66,6.75-16.55,5.29-3.75-.88-7.07-3.01-9.43-6.02-1.44-1.82-2.5-3.92-3.08-6.18.58,2.24,1.1,4.5,1.51,6.78.41,2.23.73,4.49.97,6.76-.8-.13-1.58-.32-2.35-.57-.25-.09-.51-.18-.76-.27-3.02-1.15-5.71-3.18-7.61-5.77-7.91-2.16-13.31-10.19-12.18-18.41-1.09,5.46-4.97,10.1-10.1,12.22-.13.06-.27.12-.41.17.15-.53.29-1.06.42-1.59.87-3.51,1.32-7.13,1.32-10.78-.09-27.6-24.55-47.99-51.74-46.84-12.71-6.38-28.35-6.6-41.72-1.42-.01,0-.03,0-.04,0Z"/>
        <path class="cls-8" d="M595.39,117.5c-6.52,4.31-11.52,11-13.43,18.62-1.53,6.1-1.58,16.09,3.89,20.43,1.47,1.16,6.66,3.67,8.67,2.14-2.38,2.23-6.19,3.04-9.27,1.94,4.01,3.85,9.85,2.6,13.84-.22,1.22.17,2.76.54,4.16,1.16,2.22.98,4.07,2.61,3.75,5.15-.26,2.01-1.86,3.44-3.23,4.77-5.39,5.2-13.18,8.4-20.74,6.81-3.81-.8-7.5-3.23-9.55-6.6-.06-.16-.13-.33-.2-.49-.47-1.15-.84-2.33-1.17-3.55-.47-1.76-.77-3.58-1.1-5.37v-.17c-1.4-10.43,1.08-21.23,6.77-30.01,0-.01,0-.01,0-.01,1.01-1.6,2.14-3.13,3.35-4.6,3.73-4,8.99-8.44,14.25-10Z"/>
        <path class="cls-8" d="M642.89,114.53c2.21,1.08,4.35,2.32,6.4,3.69,0,0,.01,0,.02,0,.07.05.15.1.22.16,3.51,2.51,6.49,5.72,8.72,9.42h0c3.18,5.32,4.74,11.41,4.43,17.65-2.46-.83-4.38-2.83-5.18-5.3,2.16,7.53-9.76,9.44-7.05,17.18-5.92-.9-10.01-7.34-8.25-13.11.02-.09.05-.17.07-.26-.06.03-.14.06-.2.08-2.33,1.07-5.33.63-7.27-1.05.83-1.52,1.45-3.14,1.83-4.83.26-1.16.45-2.44.49-3.64.08-1.18-.02-2.4-.17-3.56-.8-5.6-4.14-10.73-8.95-13.69-2.26-1.47-4.87-2.29-7.51-2.73-.02,0-.03,0-.04,0-8.11-1.49-17.53-.27-25.07,2.96-5.26,1.56-10.52,6-14.25,10,5.21-6.52,12.22-11.36,19.99-14.38.01,0,.03,0,.04,0,13.37-5.18,29.01-4.96,41.72,1.42Z"/>
        <path class="cls-8" d="M625.58,163.12c2.63,2.12,4.64,5.22,5.38,8.52h0c-.98,2.55-2.44,4.97-4.16,7.13h-.01s-.02.01-.03.01c-1,1.25-2.09,2.43-3.28,3.51-3.72,3.45-8.26,5.96-13.21,7.26-6.09,1.64-12.79,1.33-18.71-.82-1.46-.53-2.89-1.18-4.26-1.93-1.68-.91-3.28-1.98-4.76-3.18-1.49-1.2-2.86-2.54-4.11-3.99-1.09-1.28-2.1-2.63-2.97-4.07,2.68,2.33,5.92,4.03,9.32,5.05,3.44,1.03,7.08,1.4,10.66,1.08,3.54-.31,7.06-1.3,10.18-3.03,1.94-1.08,4.07-2.35,5.51-4.07.69-.83,1.26-1.71,1.67-2.72.4-.98.64-2.03.7-3.09s-.04-2.12-.31-3.14c-.26-1.03-.68-2.01-1.25-2.9-.46-.7-1-1.36-1.61-1.92,1.59-.66,3.3-.99,5.02-1.06.82-.04,1.7-.03,2.52.07,2.8.35,5.51,1.51,7.71,3.29Z"/>
        <path class="cls-8" d="M578.43,179.63c1.25,1.45,2.62,2.79,4.11,3.99,1.48,1.2,3.08,2.27,4.76,3.18,1.37.75,2.8,1.4,4.26,1.93,5.92,2.15,12.62,2.46,18.71.82,4.95-1.3,9.49-3.81,13.21-7.26,75.63-13.17,156.21,24.57,194.58,90.96,8.58,14.46,14.97,30.19,19.49,46.42-5.65-1.6-10.22-5.81-12.33-11.27,3.2,7.73,3.98,16.38,2.76,24.63-.79,5.36-2.66,11.12-5.19,15.87-2.68,5.03-7.32,8.98-9.31,14.37-1.88,5.1-1.79,11.44.48,16.34.25.54.52,1.07.82,1.58-7.02,5.17-18.32,2.07-21.76-5.88-9.78,10.27-22.07,17.91-35.74,22.02-13.72,4.37-28.31,4.61-42.12,1.36-.06,0-.12-.03-.18-.04-.01,0-.03-.01-.04-.01-4.54-1.08-9.1-2.51-13.51-4.32-4.37-1.78-8.57-3.93-12.45-6.47-1.02-.67-2.03-1.35-3.03-2.06-11.62-8.21-21.81-19.19-26.6-32.75-10.29-29.13,15.48-57.08,44.69-56.64,7.16.11,14.24,1.83,20.74,4.82,10.01,4.61,19.68,13.23,19.11,25.18-.3,6.4-3.83,12.48-9,16.2-5.3,3.82-13.83,5.58-19.51,1.55-3.25-2.3-4.94-6.58-4.16-10.48.89-4.4,4.9-7.99,9.38-8.36-4.83-4.72-12.46-6.35-18.78-3.99-6.34,2.37-11.02,8.62-11.48,15.36-.45,6.74,3.37,13.59,9.36,16.7,2.93,1.52,6.24,2.18,9.15,3.73,2.55,1.35,4.88,3.72,5.24,6.5-.01.4,0,.79.03,1.19.02-.4.02-.8-.03-1.19.07-3.46,1.65-6.88,4.28-9.14,4.17-3.58,10.65-3.9,15.23-.94,1.59,1.02,2.95,2.41,3.88,4.05.48.84.84,1.74,1.08,2.68.08.32.23,2.77.34,2.83-.71-.38-1.47-.69-2.26-.86-5.12-1.12-9.98,3.25-10.59,8.15-.52,4.19,2.04,7.66,5.26,10.04,6.48,4.79,14.78,6.54,22.71,5.49,10.74-1.41,20.99-8.12,25.49-18.14,1.13-2.55,3.1-7.2,1.76-9.69-1.98-3.67-4.11-7.32-4.96-11.46-.79-3.82-.88-8.06-.27-11.93.77-4.88,2.64-9.61,5.65-13.55.77-1,1.56-1.97,2.34-2.96,28.21-37.66,2.87-66.96-20.39-78.58h-.01c-.24,19.99-17.44,36.25-37.51,35.27,2.52-6.75,3.84-13.91,3.86-21.22,35.42-54.98-35.53-61.81-57.67-61.24h-.34c-10.18-.58-20.68,1.54-29.73,5.94h.09c-15.79,7.6-36.47,6.12-50.9-3.91l-.07-.04c-7.16-4.84-13.06-11.62-16.65-19.48-.32-.81-.86-2.2-1.31-3.36.03.05.06.1.08.14.13.3.27.59.41.88.27.57.56,1.14.85,1.7.23.43.47.86.72,1.28.87,1.44,1.88,2.79,2.97,4.07Z"/>
        <path class="cls-8" d="M551.75,91.37c3.3,7.68,5.61,15.72,6.89,23.96-4.79,14.13-23.34,18.98-34.44,8.73l.68-1.26c11.6-4.63,16.78-19.78,10.02-30.63-.13-.24-.29-.47-.44-.71-4.75-7.51-3.74-18.43,2.1-24.88,6.19,7.43,11.33,15.77,15.19,24.79Z"/>
        <path class="cls-8" d="M458.84,19.36c5.9.68,10.51,5.48,10.84,11.45-4.06-.43-8.14-.61-12.21-.55-.05-.01-.09-.01-.13,0-4.04.06-8.08.37-12.09.92.17-6.38,5.25-11.55,11.59-11.87.35.04.71.06,1.06.07.28,0,.56,0,.84-.02h.1Z"/>
        <path class="cls-8" d="M473.36,109.59c.04,5.06-4.68,9.05-9.65,8.15,5.24,12.75,22.03,17.95,33.62,9.97-1.35-1.32-2.49-2.85-3.35-4.55-10.12,1.13-17.92-6.46-19-15.2-.46-3.78.33-7.78,2.73-11.38,3.07-4.21-2.01-9.31-6.17-6.64-4.03,2.8-7.08,6.92-8.62,11.67,4.67-1.37,9.58,1.98,10.34,6.58.08.46.11.92.1,1.4ZM457.47,30.26c.39,4.69,2.59,8.82,6.07,11.76,0,0,.01,0,.01.01.01,0,.01.01.01.01.78.65,1.6,1.23,2.47,1.72l.02.02s.01,0,.01.01c4.87,3.89,7.34,11.09,5.65,17.39.97-3.17,2.69-6.09,4.93-8.44h0c7.89-8.65,22.5-8.86,30.61-.41,11.89,11.7,5.83,32.43-10.37,35.95-.66.21-1.33.46-1.96.76h-.02c-12.15,5.49-13.53,22.6-2.4,29.98-2.45-10.51,6.08-21.09,16.84-20.9,12.46-.12,21.08,13.34,15.54,24.68l-.68,1.26c-2.03,3.47-5.25,6.17-9.1,7.52,10.59,15.1,33.8,15.39,44.77.54-.08,9.61-1.54,19.07-4.26,28.11-56.41-32.93-136.95-32.93-193.35.01-2.36-7.79-3.79-15.98-4.17-24.44,11.8,11.28,32.08,9.14,41.33-4.11-3.56-1.19-6.6-3.51-8.69-6.53-10.28,8.15-26.15,4.43-31.91-7.08,1.28-9.92,4.03-19.63,8.17-28.7,3.4-7.5,7.7-14.51,12.76-20.89,4.75,6.7,4.9,16.8.18,23.68-6.57,10.54-1.84,25.35,9.26,30.28-5.23-11.31,3.42-24.47,15.7-24.33,10.87-.17,19.41,10.55,16.78,21.13,11.6-7.14,10.49-24.65-1.88-30.28h0c-.25-.12-.51-.23-.77-.34h0c-.69-.29-1.42-.52-2.15-.71-23.27-7.33-18.6-41.35,6.1-41.85,9.08.02,16.9,5.64,20.01,13.85-1.29-7.06,2.15-13.54,7.82-17.53.08-.05.14-.1.22-.15,0,0,.02,0,.03-.02,0,0,0,0,0-.01.01,0,.01-.01.02-.01,3.59-2.94,5.89-7.16,6.28-11.94.04-.01.08-.01.13,0ZM436.72,96.88c2.34,3.64,3.03,7.67,2.46,11.47-1.28,8.59-9.04,15.96-18.93,14.81-.86,1.68-1.98,3.19-3.31,4.49,11.57,8.17,28.56,3.04,33.83-9.83-4.84.51-9.16-3.34-9.13-8.23-.01-.33.01-.66.04-.99.5-4.57,5.09-8.11,9.78-7.13-1.67-4.97-5-9.15-9.33-11.94-4-1.8-8.13,2.71-5.98,6.52.15.29.33.54.54.79.01,0,.02.03.03.04Z"/>
        <path class="cls-8" d="M311.71,179.06c3.12,1.73,6.63,2.72,10.18,3.03,3.58.32,7.22-.05,10.66-1.08,3.4-1.02,6.64-2.72,9.32-5.05-.87,1.44-1.88,2.79-2.97,4.07-1.25,1.45-2.62,2.79-4.11,3.99-1.48,1.2-3.08,2.27-4.76,3.18-1.37.75-2.8,1.4-4.27,1.93-5.92,2.15-12.61,2.46-18.7.82-4.95-1.3-9.49-3.81-13.22-7.26-1.18-1.08-2.27-2.26-3.27-3.51,0,0-.02,0-.03,0h-.01c-1.72-2.16-3.18-4.58-4.16-7.12h0c.74-3.31,2.75-6.41,5.38-8.53,2.2-1.78,4.91-2.94,7.71-3.29.82-.1,1.7-.11,2.52-.07,1.72.07,3.43.4,5.02,1.06-.61.56-1.16,1.22-1.61,1.92-.57.89-.99,1.87-1.25,2.9-.27,1.02-.37,2.08-.31,3.14s.3,2.11.7,3.09c.41,1.01.98,1.89,1.67,2.72,1.44,1.72,3.57,2.99,5.51,4.07Z"/>
        <path class="cls-8" d="M314.08,161.97c1.4-.62,2.94-.99,4.16-1.16,3.99,2.82,9.83,4.07,13.84.22-3.08,1.1-6.9.29-9.27-1.94,2.01,1.53,7.2-.98,8.67-2.14,5.47-4.34,5.42-14.33,3.89-20.43-1.91-7.62-6.91-14.31-13.43-18.62,5.26,1.56,10.52,6,14.25,10,1.21,1.47,2.34,3,3.35,4.6,0,0,.01,0,.01.01,5.69,8.78,8.17,19.58,6.76,30.01v.17c-.32,1.79-.62,3.61-1.09,5.37-.33,1.22-.7,2.4-1.17,3.55-.07.16-.14.33-.21.49-2.04,3.37-5.73,5.8-9.54,6.6-7.56,1.59-15.35-1.61-20.74-6.81-1.37-1.33-2.97-2.76-3.23-4.77-.32-2.54,1.53-4.17,3.75-5.15Z"/>
        <path class="cls-8" d="M316.2,113.52c7.77,3.02,14.78,7.86,19.99,14.38-3.73-4-8.99-8.44-14.25-10-7.54-3.23-16.96-4.45-25.07-2.96-.01,0-.03,0-.04.01-2.65.44-5.25,1.26-7.51,2.73-4.81,2.96-8.15,8.09-8.95,13.69-.15,1.16-.25,2.38-.17,3.56.04,1.2.22,2.48.48,3.64.39,1.69,1.01,3.31,1.84,4.83-1.94,1.68-4.94,2.12-7.27,1.05-.07-.02-.14-.05-.2-.08.02.09.05.17.07.26,1.76,5.77-2.33,12.21-8.25,13.11,2.71-7.74-9.21-9.65-7.05-17.18-.8,2.47-2.72,4.47-5.18,5.3-.31-6.24,1.25-12.33,4.43-17.65h.01c2.23-3.7,5.21-6.91,8.72-9.42.07-.06.15-.11.22-.16.01,0,.02,0,.02-.01,2.05-1.37,4.19-2.61,6.4-3.69,12.71-6.38,28.35-6.6,41.72-1.42.01,0,.03,0,.04,0Z"/>
        <path class="cls-8" d="M307.06,189.95c6.09,1.64,12.78,1.33,18.7-.82,1.47-.53,2.9-1.18,4.27-1.93,1.68-.91,3.28-1.98,4.76-3.18,1.49-1.2,2.86-2.54,4.11-3.99,1.09-1.28,2.1-2.63,2.97-4.07.25-.42.49-.85.72-1.28.29-.56.58-1.13.85-1.7.14-.29.28-.58.4-.88.03-.04.06-.09.09-.14-.45,1.16-.99,2.55-1.31,3.36-3.59,7.86-9.49,14.64-16.65,19.48l-.03.02s0,.01-.01.01h-.03c-14.43,10.04-35.11,11.52-50.9,3.92h.09c-9.05-4.4-19.55-6.52-29.73-5.94h-.34c-22.14-.57-93.09,6.26-57.67,61.24.02,7.31,1.33,14.47,3.86,21.22-20.07.98-37.27-15.28-37.51-35.28h-.02c-23.26,11.63-48.59,40.93-20.38,78.59.78.99,1.57,1.96,2.34,2.96,3.01,3.94,4.88,8.67,5.65,13.55.61,3.87.52,8.11-.27,11.93-.85,4.14-2.98,7.79-4.96,11.46-1.34,2.49.62,7.14,1.76,9.69,4.5,10.02,14.75,16.73,25.49,18.14,7.93,1.05,16.23-.7,22.71-5.49,3.22-2.38,5.78-5.85,5.26-10.04-.61-4.9-5.47-9.27-10.6-8.15-.78.17-1.54.48-2.25.86.11-.06.26-2.51.34-2.83.24-.94.6-1.84,1.08-2.68.93-1.64,2.29-3.03,3.88-4.05,4.58-2.96,11.06-2.64,15.23.94,2.63,2.26,4.21,5.68,4.28,9.14-.05.39-.06.79-.03,1.19.03-.4.04-.79.03-1.19.36-2.78,2.68-5.15,5.24-6.5,2.91-1.55,6.22-2.21,9.15-3.73,5.99-3.11,9.81-9.96,9.36-16.7-.46-6.74-5.15-12.99-11.48-15.36-6.33-2.36-13.95-.73-18.78,3.99,4.48.37,8.49,3.96,9.38,8.36.78,3.9-.91,8.18-4.16,10.48-5.69,4.03-14.21,2.27-19.51-1.55-5.17-3.72-8.7-9.8-9-16.2-.57-11.95,9.1-20.57,19.11-25.18,6.5-2.99,13.58-4.71,20.74-4.82,29.21-.44,54.98,27.51,44.69,56.64-4.8,13.56-14.98,24.54-26.6,32.75-1,.71-2.01,1.39-3.03,2.06-3.88,2.54-8.08,4.69-12.45,6.47-4.41,1.81-8.97,3.24-13.51,4.32-.01,0-.03,0-.04,0-.06.01-.12.03-.18.04-13.81,3.25-28.41,3.01-42.12-1.36-13.67-4.11-25.96-11.75-35.74-22.02-3.44,7.95-14.74,11.05-21.76,5.88.3-.51.57-1.04.82-1.58,2.27-4.9,2.36-11.24.48-16.34-1.99-5.39-6.63-9.34-9.31-14.37-2.53-4.75-4.4-10.51-5.19-15.87-1.22-8.25-.44-16.9,2.76-24.63-2.11,5.46-6.68,9.67-12.33,11.27,4.52-16.23,10.91-31.96,19.49-46.42,38.37-66.39,118.95-104.13,194.57-90.96,3.73,3.45,8.27,5.96,13.22,7.26Z"/>
        <path class="cls-8" d="M303.64,644.8s8.72-8.94,20.02-6.41c0,0-7.42,9.94,0,13.94,7.41,4,15.88-3.06,15.88-3.06,0,0-5.2-2.87-6.95-7.67,0,0,17.07-1.45,9.54-13.71-7.53-12.26-21.42-10.85-21.42-10.85,0,0,6.12,7.05,7.18,12.29,0,0-10.06,5.77-22.23-8.88,0,0-5.47,6.7-1.24,10.76,0,0-11.59-2.52-19.36,2.53-7.77,5.06-2.83,19.68-2.83,19.68-.95.67-1.92,1.32-2.91,1.94-41.32,25.12-100.56,18.43-132.5-60.07-1.18-7.57-1.6-15.55-1.23-23.24v-.02h0c.26-5.86.98-11.71,2.16-17.46.42,29.52,7.28,64.76,34.9,81.37,21.01,10.33,61.16,12.49,68.57-17.15,6.05,1.16,10.74,6.28,11.3,12.41.01,0,.01,0,.01,0,.25,2.41-.16,5-1.17,7.18,12.63-1.19,22.62-12.01,22.83-24.66h0c1.07-18.82-20.95-32.34-37.24-23.09.27-12.32,9.47-22.7,21.54-24.51-25.49-19.52-56.2,16.7-32.86,38.69-.24-6.03,5.76-10.96,11.64-9.48,9.5,1.79,9.72,16.44.24,18.5-35.04,8.38-59.3-37.35-33.05-61.7,0,0,.01,0,.02-.02.04-.04.09-.08.13-.12.68-.73,1.39-1.44,2.12-2.12,1.46-1.37,3.02-2.64,4.66-3.81.11-.08.22-.16.34-.24.38-.26.76-.52,1.15-.78.43-.28.86-.56,1.3-.83.39-.24.78-.48,1.18-.71,6.82-3.94,14.63-6.21,22.64-6.51.1,0,.19-.02.29-.02,1.06,0,2.12,0,3.16.06,10.88.49,20.94,4.22,29.53,10.17,16.77,11.59,27.9,31.59,28.4,52.36v.04c-.05,2.99-.29,5.96-.7,8.9,12.27-7.21,30.03-4.21,39.28,6.46h.01c6.56,7.08,9.62,17.05,8.14,26.63h0c-2.02,14.99-15.5,27.09-30.62,27.45-13.15.83-24.02-11.27-21.86-24.25Z"/>
        <path class="cls-8" d="M286.31,662.11c9.47,17.11,26.84,33.12,44.8,34.34,2.19,1.16,4.82,2.11,7.3,2.49,3.53.56,7.43.2,10.77-.98,11.68,8.72,28.31,10.98,41.94,5.83.59,1.6.96,3.27,1.05,4.99,5.64-6.84,17.14-7.9,23.95-2.25,3.81-.04,7.49,1.16,10.51,3.36-1.9,3.2-4.81,5.72-8.23,7.18,12.92-4.6,26.52,8.62,22.22,21.72-2.06-3.35-4.71-6.3-7.81-8.7-3.11-2.41-6.65-4.24-10.44-5.38-4.98-1.52-10.66-1.76-15.78-.69h0c-48.15,11.64-101.04-15.93-120.28-61.91Z"/>
        <path class="cls-8" d="M314.87,160.15c-.44.28-.89.54-1.35.77-.52.27-1.05.51-1.6.72.21-.93.28-1.96.17-2.91-.54-5.76-5.57-8.46-10.87-8.41-5.05.04-10.1,2.34-13.18,6.4-3.28,4.33-3.58,9.22-2.18,13.84-1.05-2.83-1.87-5.98-2.05-9.03v-.02s-.02-.04-.02-.04c-2.5-17.06,18.01-40.62,34.45-24.06h.01c1.62,1.82,2.77,3.98,3.37,6.35.75,2.85.55,6.07-.51,8.8-.6,1.59-1.48,3.05-2.56,4.36-.02.02-.04.03-.04.05-.47.56-1,1.1-1.55,1.59-.16.15-.34.29-.5.43-.5.42-1.04.8-1.59,1.16Z"/>
        <path class="cls-8" d="M280.01,528.31c-3.46,17.24,30.72,25.72,29.38,71.26-.5-20.77-11.63-40.77-28.4-52.36-5.76-6.77-4.55-14.49-.98-18.9Z"/>
        <path class="cls-8" d="M204.24,148.53c21.45-36.57,73.11-52.91,111.96-35.01,0,0-.03,0-.04,0-13.37-5.18-29.01-4.96-41.72,1.42-27.19-1.15-51.65,19.24-51.74,46.84,0,3.65.45,7.27,1.32,10.78.13.53.27,1.06.42,1.59-.14-.05-.28-.11-.41-.17-5.13-2.12-9.01-6.76-10.1-12.22-.02-.11-.04-.21-.06-.32l.05.32c1.14,8.22-4.26,16.25-12.17,18.41-1.9,2.59-4.59,4.62-7.61,5.77-.25.09-.51.18-.76.27-.77.25-1.55.44-2.35.57.24-2.27.56-4.53.97-6.76.41-2.28.92-4.54,1.51-6.78-.59,2.26-1.64,4.36-3.09,6.18-2.35,3.01-5.67,5.14-9.42,6.02-5.89,1.46-12.66-.72-16.55-5.29,2.83-.86,5.6-1.89,8.28-3.1,3.29-1.49,6.46-3.22,9.47-5.2,8.48-5.54,15.68-12.95,20.99-21.58.35-.56.68-1.12,1.02-1.7,0-.01.01-.03.02-.04v.05s0-.03,0-.04Z"/>
        <path class="cls-8" d="M159.66,430.95c2.14,1.46,4.66,2.27,7.28,2.31,20.01,13.63,38.33,2.47,48.96-38.54,4.37-1.78,8.57-3.93,12.45-6.47,1.02-.67,2.03-1.35,3.03-2.06,6.39,21.42,1.4,47.34-12.37,64.64-.01,0-.03.02-.03.04-.68.88-1.38,1.75-2.1,2.6h0c-2.23,2.88-4.67,6.51-6.58,9.61-11.6,13.37-33.31,49.67-32.32,74.85-.75,14.66,7.73,28.63,20.95,34.85-.37,8.77-8.1,13.95-15.7,13.95-5.2,0-10.36-2.42-13.05-7.77v-.02c-8.7-12.61-13.93-38.69-4.43-61.03-2.3,2.69-13.08,17.64-14.06,22.19-3.57,2.98-9.24,3.79-13.53,1.91-.24-9.18,2.49-18.25,7.67-25.65,5.7-8.25,14.17-14.28,23.84-16.97-5.47-3.01-13.32-1.51-17.26,3.3-6.85-6.36-4.55-19.26,4.03-22.88-1.49-.08-2.97-.21-4.45-.38-5.93-1.39-13.25.53-17.94-4.44h-.01c-2.46-2.34-3.96-5.51-4.16-8.95,1.66-1.55,3.7-2.65,5.92-3.19-1.74-.76-3.33-1.69-4.9-2.83-13.35-8.82-14.98-30.86-3.02-41.54,1.74,8.07,8.23,14.36,16.37,15.83.85-6.06,4.37-11.38,9.51-14.57-.04,4.54,2.22,8.73,5.9,11.23v-.02Z"/>
        <text class="cls-5" transform="translate(26.13 717.68) rotate(43.94) scale(1.06 1)"><tspan x="0" y="0">N</tspan></text>
        <text class="cls-5" transform="translate(58.8 744.7) rotate(16.39) scale(1.06 1)"><tspan x="0" y="0">O</tspan></text>
        <text class="cls-5" transform="translate(94.3 753.34) rotate(6.29) scale(1.06 1)"><tspan x="0" y="0">T</tspan></text>
        <text class="cls-5" transform="translate(118.65 756.05) rotate(10.59) scale(1.06 1)"><tspan x="0" y="0">H</tspan></text>
        <text class="cls-5" transform="translate(150.4 762.06) rotate(11.96) scale(1.06 1)"><tspan x="0" y="0">I</tspan></text>
        <text class="cls-5" transform="translate(162.32 763.6) rotate(17.76) scale(1.06 1)"><tspan x="0" y="0">N</tspan></text>
        <text class="cls-5" transform="translate(191.71 772.93) rotate(33.41) scale(1.06 1)"><tspan x="0" y="0">G</tspan></text>
        <text class="cls-5" transform="translate(217.03 790.97) rotate(41.29) scale(1.06 1)"><tspan x="0" y="0"> </tspan></text>
        <text class="cls-5" transform="translate(225.88 799.4) rotate(39.32) scale(1.06 1)"><tspan x="0" y="0">I</tspan></text>
        <text class="cls-5" transform="translate(239.33 810.54) rotate(25.61) scale(1.06 1)"><tspan x="0" y="0">S</tspan></text>
        <text class="cls-5" transform="translate(265.83 821.88) rotate(13.91) scale(1.06 1)"><tspan x="0" y="0"> </tspan></text>
        <text class="cls-5" transform="translate(278.34 825.34) rotate(3.74) scale(1.06 1)"><tspan x="0" y="0">T</tspan></text>
        <text class="cls-5" transform="translate(306.77 825.96) rotate(-6.27) scale(1.06 1)"><tspan x="0" y="0">R</tspan></text>
        <text class="cls-5" transform="translate(333.13 822.95) rotate(-2.48) scale(1.06 1)"><tspan x="0" y="0">U</tspan></text>
        <text class="cls-5" transform="translate(364.73 821.69) rotate(2.49) scale(1.06 1)"><tspan x="0" y="0">E</tspan></text>
        <text class="cls-6" transform="translate(537.7 818.29) rotate(-8.44)"><tspan x="0" y="0">A</tspan></text>
        <text class="cls-6" transform="translate(564.62 814.93) rotate(8.09)"><tspan x="0" y="0">L</tspan></text>
        <text class="cls-6" transform="translate(586.4 818.34) rotate(14.05)"><tspan x="0" y="0">L</tspan></text>
        <text class="cls-6" transform="translate(609.11 824.05) rotate(12.28)"><tspan x="0" y="0"> </tspan></text>
        <text class="cls-6" transform="translate(621.54 826.71) rotate(7.09)"><tspan x="0" y="0">I</tspan></text>
        <text class="cls-6" transform="translate(639.56 829.03) rotate(-9.59)"><tspan x="0" y="0">S</tspan></text>
        <text class="cls-6" transform="translate(670.01 821.05) rotate(-31.54)"><tspan x="0" y="0"> </tspan></text>
        <text class="cls-6" transform="translate(682.89 812.65) rotate(-44.16)"><tspan x="0" y="0">P</tspan></text>
        <text class="cls-6" transform="translate(700.57 794.45) rotate(-41.25)"><tspan x="0" y="0">E</tspan></text>
        <text class="cls-6" transform="translate(717.3 779.62) rotate(-30.27)"><tspan x="0" y="0">R</tspan></text>
        <text class="cls-6" transform="translate(737.86 766.68) rotate(-16.56)"><tspan x="0" y="0">M</tspan></text>
        <text class="cls-6" transform="translate(773.35 757.47) rotate(-6.09)"><tspan x="0" y="0">I</tspan></text>
        <text class="cls-6" transform="translate(785.04 756.33) rotate(-3.12)"><tspan x="0" y="0">T</tspan></text>
        <text class="cls-6" transform="translate(812.94 755.14) rotate(-9.32)"><tspan x="0" y="0">T</tspan></text>
        <text class="cls-6" transform="translate(839.67 750.41) rotate(-18.2)"><tspan x="0" y="0">E</tspan></text>
        <text class="cls-6" transform="translate(873.72 738.64) rotate(-50.31)"><tspan x="0" y="0">D</tspan></text>
      </g>
      <path class="cls-2" d="M481.54,770.49h0"/>
      <g>
        <path class="cls-1" d="M454.55,794.19c-.12.05-.25.06-.37.02.11-.05.24-.05.37-.02Z"/>
        <path class="cls-1" d="M455.84,795.93c-.08-.05-.16-.11-.25-.16-.02-.28-.04-.6,0-.9.16.34.23.7.25,1.06Z"/>
        <polygon class="cls-1" points="469.61 834.91 469.52 835.01 469.5 834.87 469.52 834.42 469.61 834.91"/>
        <path class="cls-1" d="M454.55,794.19c-.12.05-.25.06-.37.02.11-.05.24-.05.37-.02Z"/>
      </g>
      <path class="cls-2" d="M468.75,804.1h0"/>
      <g>
        <path class="cls-3" d="M497.95,812.29c0,9.51-3.49,18.2-9.25,24.87-6.98,8.07-17.3,13.18-28.8,13.18-21.02,0-38.05-17.03-38.05-38.05s17.03-38.05,38.05-38.05c14.05,0,26.32,7.62,32.91,18.94,3.27,5.62,5.14,12.15,5.14,19.11Z"/>
        <path class="cls-3" d="M456.55,799.92c.1.03.2.03.31,0-.11-.03-.22-.03-.31,0ZM517.78,822.71s-4.72-.07-7.16.65l-.16-1.28-2.48-.62s-1-1.61-2.76-1.65-.4-1.54-.4-1.54c0,0-1-.58-2.96-.2-1.96.39-1.44-.69-1.44-.69,0,0,.48-1.16-.92-1.54,0,0-1.41-1.16-3.09-1,0,0,.32-1.11.16-1.46-.16-.35-2.16.46-2.16.46,0,0-.16-1.08-.92-1.35s-2.08.31-2.08.31c0,0-.28-1.04-1.6-1.2-1.32-.15-1.84-.58-1.84-.58,0,0-.64,1.08-1,1.27-.36.2-2.16-.57-2.16-.57,0,0,.48-.66-.8-.7s-1.32.66-1.32.66c0,0-.36,1.35-1.72.93-1.37-.43-2-.93-2-.93,0,0-.77-.42,0-1.12.75-.69.52-1.42.52-1.42,0,0-2.01-.17-2.35-1.42.72.42.58.16,1.68.1.36-.03,1.6-1.44,2.22-2.18-.13-.04-.26-.1-.4-.16-.13-.06-.26-.13-.39-.21-.08-.04-.14-.09-.21-.14-.04-.03-.07-.05-.1-.08-.06-.05-.12-.1-.16-.16-.04-.04-.07-.07-.1-.11-.05-.05-.09-.1-.12-.15-.11-.16-.19-.33-.24-.53.09.06.18.1.25.14.11.05.19.09.27.12h.01c.15.05.28.04.45.01.08-.01.17-.03.29-.05-.12-.19-.23-.4-.3-.64-.3-.94.66-2.63.66-2.63,0,0,1.2-.35.72-1.6-.48-1.24,1.19-3.14,1.19-3.14,0,0-1.37-.58-.3-1.68,1.09-1.1-1.14-3.18-1.14-3.18,1.57-2.66-1.98-5.49-1.98-5.49,1.24-1.47,1.55-2.64,1.4-3.57l1.13-.36.2-.85-.75-1.07-1.98-.32-.62.17c-.52-.29-.94-.41-.94-.41,0,0,.36-1.39,0-4.16-.36-2.78-3.84-.93-3.84-.93-.18-3.12-1.5-4.45-1.5-4.45,0,0-1.86,3.41-3.3.52-1.44-2.89-1.26,1.45-1.26,1.45,0,0,.06,1.91-1.5,1.21-1.56-.69-2.79,1.33-2.79,1.33v2.77s-.69,1.1-.93.81c-.25-.29-.66,1.1-.66,1.1l1.25,1.04-.59,3.06-1.63.93-.62.75s.5,2.14-.46,2.54c-.96.41-1.11,1.16-1.11,1.16,0,0,.63.1.69,2.5.06,2.41-1.56,1.89-1.56,1.89,0,0-1.02.87-.78,2.25.24,1.39,1.26,2.03,1.26,2.03,0,0-.85,2.26-1.69,2.56.25.05.53.24.77.35.51.93.24,1.99.14,2.99,0,0-.54-1.47-1.3-1.94-.76-.46-1.2-.53-1.2-.53,0,0-1.28.07-1.72.73-.44.65-1.56,0-1.56,0-.32,1.04-1.16.81-1.16.81-.96-.5-1.8-1.2-1.8-1.2,0,0-.48.43-1,.27-.52-.15-.64-.73-.64-.73,0,0-.96-.23-1.32-.12-.36.12-1.26-.5-1.26-.5l-.31-1.38s-1.36.27-1.68-.54c-.32-.81-1.27-.31-1.27-.31l-.61.08-.44-.27h-1.44c-.72-1.23-1.56-.77-1.56-.77,0,0-1.44,1.35-2.36-.27-.92-1.62-2.16-.43-2.16-.43,0,0-2.04.27-2.8-.08-.76-.34-1.12.89-1.12.89,0,0-2.48-2.58-2.8-2-.33.58-1.28.19-1.28.19-2.73-2.46-3.53-3.97-3.53-3.97,0,0,.76,4.36,1.44,5.47v1.39l1.56,1.23s.32,2.12.21,2.24c-.12.12,2.72,2.89,2.6,2.89s-1.04,1.54-.97,1.89c.09.34,1.37.76,1.37.76,0,0,1.04.24,1,1.35-.04,1.12.56.77.56.77,0,0,1.58.2,1.55.82-.03.61.65.69.65.69l1.68.88s.84-.81,1.56-.17c.72.64,1,1.1,1,1.1l1.74.23s.38.77,1.06,1.62c.43.55.53,1.32.54,1.81.56.04,1.17.26,1.62.85h.01c.72.05,1.89.18,2.12.42,0,0,2.23-.92,3.04,1.06.8,1.98,0,1.17,0,1.17,0,0-.16.97,1.6,1l.55.37c.98-.41,2.11-.8,2.57-.57-.4.22-.72.55-1.04.91l.6.34s2.75-1.44,3.48-1.09c-.95.48-1.39,1.78-2.49,2.01-.73.24-1.37.5-1.96-.15-1.46,1.89-3.83,3.1-3.83,3.1,1.63.68,1.28,2.48,1.28,2.48-.44,1.45-.98,1.82-1.34,1.89.11.19.24.56.38,1.25.4,2.06-1.52,5.34-1.52,5.34,0,0-1.41-.89-1.2,1.62.2,2.51-1.45,3.39-1.45,3.39,0,0-1.44.54-1.08,2.77.36,2.23-.73,3.85-.73,3.85,0,0-3.15,5.09-2.21,4.47.94-.61,2.66,1.31,2.66,1.31,0,0,1.12,3.39-1.12,3.86-2.24.46-2.88,3.31-2.88,3.31,0,0,1.52,2,4-.62,0,0,.65,1.77,2.08,1,1.45-.77,4.77-4.08,4.77-4.08l1.24,1.7,5.04-3.7,1.84-.47s.03-2.54.54-2.31c.5.23,1.8.54,1.8.54l.91-2.23,2.45-.31.84-2.24,2.12-1.54,1.42-.31,1.07-1.61,1.18-.7-.44-2.07,1.57-2.55-.33-3,1.36-1.6-.02-.14.02-.45v-.03l-.42-2.41.14-2.65c.04.16.1.32.17.47,2.68,1.83,3.97.14,3.97.14,0,0-.06-1.56,0-2.08.06-.52,1.62-.46,1.86-.52.24-.06,1.26,1.04,1.26,1.04,0,0,1.38-.06,2.1-.75.73-.69,2.41.17,2.41.17l.78,1.23h.01c.97-.14,2.24.54,2.24.54l1.18,1.92,1.31-.05c.9.81,3.64.87,3.64.87l1.34-1.12c1.26.68,3.84-.67,3.84-.67l.18-1.68,3.72,1.45.36-.54c.18.37,2.53-.04,2.53-.04.66.29.42-1.33.42-1.33,0,0,3.6.23,4.44.23s.3-.81.42-1.27c.12-.46,1.26-.64,1.26-.64l3.36-.57-.36-.56c2.16-1.94,6.1-2.86,6.1-2.86ZM466.84,817.5h.01s.01,0,.01,0h-.02ZM444.81,829.9s.16.09.4.04c-.23-.38-.4-.04-.4-.04Z"/>
      </g>
      <path class="cls-4" d="M466.86,817.5s-.01,0-.02,0c0,0,0,0,0-.01,0,0,0,0,.01.01Z"/>
      <g>
        <path class="cls-1" d="M420.73,787.78c-.15.16-.28.32-.39.49l-.72-.63v-.12c.41.03.78.13,1.11.26Z"/>
        <path class="cls-1" d="M456.86,799.91c-.11.04-.21.04-.31,0,.09-.04.2-.04.31,0Z"/>
        <path class="cls-1" d="M431.19,864.27c-.05.27-.2.46-.39.62.05-.25.18-.51.35-.78,0,.05.03.1.04.16Z"/>
        <path class="cls-1" d="M455.84,795.93c-.08-.05-.16-.11-.25-.16-.02-.28-.04-.6,0-.9.16.34.23.7.25,1.06Z"/>
        <path class="cls-1" d="M456.86,799.91c-.11.04-.21.04-.31,0,.09-.04.2-.04.31,0Z"/>
      </g>
      <path class="cls-7" d="M534.61,823.75c-1.22-4.3-10.22-1.95-13.19-2.17l-.09-1.3-3.74-.57c.68-1.63-2.41-1.64-3.24-2.05l.8-.88c-1.9-2.67-2.66.27-5.78-1.34,1.04-1.9-1.24-2.31-2.65-2.32-.09-.81-1.19-.82-1.79-.88,1.15-2.91-1.66-3.49-3.74-2.2.28-1.94-2.2-2.18-3.49-1.47.18-2.03-3.06-1.21-4.21-.88.14-1.13-.79-1.28-1.68-1.35-.16.76-.48,2.76-1.62,2.27.42-1.77-2.3-1.27-3.26-1.27-.98-.6-2.04.35-1.72,1.42-.59.02-1.76.35-1.87-.55l.95-.48c-.11-.58-.73-.76-1.24-.77l.18-2.68c-.06,0-.13-.01-.19-.01-.03-.14-.09-.24-.18-.32.96-.64,1.87-1.15,2.67-1.42,2.8-4.94-1.12-2.13-.37-5.72,1.54-.12,2.93-1.31,2.46-2.94-1.45-.07-1.17-1.01-.85-2.05-.78-1.24,1.61-1.13,1.91-2.29-2.82-2.05,2.53-5.11-2.44-6.2,1.71-2.06.96-5.5-1.57-6.51-.38-.84.35-2.46.7-3.22-.29-1.08.43-1.44,1.34-1.71.01-1.9-1.13-4.76-3.44-3.96-.18-1.24,1.08-5.99-1.62-5.06.76-2.18-2.18-5.33-4.14-3.52-.6-3.11-4.87-17.32-9.3-11.8.19,2,2.46,3.1,1.97.29,4.05-.35,2.56,5.06,1.47,7.22-1.18-.47-2.66-2.19-3.24-3.28-2.34-1.12-4,1.73-1.12,2.37-2.16.96.26,1.68-1.25,3.7-1.31-1.94-3.28-.8-4.03.99-.16.8-.42,2.72-1.39,3.01-.5,1.12.62,5.05-1.04,4.74-.87,1.73,1.73,2.64,1,4.24-1.35,1.08-4.32,3.5-2.98,5.16-2.79,1.59-1.12,3-3.32,3.62.89.62,1.92,2.37,2.3,3.37-1.09-.2-1.68.57-1.91,1.52-.67.39-.75,1.37-.59,2.05-1.18.2-1.14,1.47-1.07,2.39,3.71,2.37.14,1.98,1.17,5.27.11-.05.24-.05.37-.02-.12.05-.25.06-.37.02-.07.02-.13.06-.18.12-.05.05-.09.1-.14.18-.46.54-.88-.44-1.3-.66-1.78-1.28-1.54.51-2.48,1.07-.51-.58-.85-1.73-1.81-1.37-.74.27-.1,2.62-1.23,1.96-.68-.38-.47-1.37-1.43-1.44-.45-.29-.67.33-1.08.42-.61.07-1.14-.47-1.19-1.06-.1-.62-.48-.79-1.05-.59-.34.05-.47.49-.82.57-.9-.17-.87-1.34-1.14-2.01-.7-.31-1.53-.48-2.25-.79-.2-.64-.6-1.11-1.35-1.14-.52-.28-.83.03-1.15.42-.35.19-.54-.63-.94-.67-.5-.07-1.03-.05-1.54-.11-.38-.28-.52-1.01-1.09-1.01-.77-.12-1.63-.41-1.73.64-.03.99-.78.42-1.32.15-.3-.12-.56-.17-.69-.49-.11-.96-.69-1.33-1.63-1.23-1.91.09-.38,1.65-3.68,1-.05-1.96-1.39-1.31-2.23-.39-.15.16-.28.32-.39.49l-.72-.63c-.74-.65-1.49-1.31-2.24-1.96-.58-.55-.72.88-1.25,1-2.35-2.7-2.96-7.85-7.04-8.19-.05,1.85-.15,3.74.5,5.52.23.74.54,1.45.78,2.18.48,1.61,1.53,3.15.86,4.84-.28.74.9.97.97,1.69.04.14.09.28.13.43.56,1.29,1.71-.53,1.49,2.22-1.14,2.4,1.91,3.46,2.82,5.22-.97.57-.79,1.59-.67,2.54.35,1.03,2.52.71,3.02,1.58-1.36,1.82.73,2.84,2.33,3.09.3.04.44.27.52.54.36.7,1.52.47,2.16.81.46.47.02,1.96,1.06,1.62,1.18.35.96-1.59,1.79-.91.74.54,1.81.83,1.74,1.92.57,1.11,2.6,1.24,3.06,2.27-.27,1.01-.58,2.04-.83,3.04,1.52.75,3.24-.09,4.7-.39.23.33.35.95.69,1.14.4-.11.86-.26,1.34-.37-.05.17-.09.33-.13.49.67.32,1.39.27,2.1.12.29.93,1.06,1.6,1.16,2.6.34.99,1.48,1.11,2.57,1.33-.41,2.72-5.57,2.27-5.05,5.11.52.79,1.79,1.47,1.92,2.42-1.16.44-3.09.51-2.79,2.28,1.18.81,2.01,1.77,1.73,3.29-.34,1.47-2.07,2.16-1.49,3.95-.79,1.35-1.73.26-1.92,2.95-.04,1.39-.37,4.11-2.36,3.01-1.46-.59-1.17,2.02-1.08,2.9.02.67-1.02.67-1.17,1.3-.37.59-.08,1.1.46,1.42,1.45,1.7-1.43,3.92-2.6,5.14-2.23,1.68-1.57,5.1-1.14,7.46.79,1.52,2.94-.58,3.39.87,0,.05.03.1.04.16-.05.27-.2.46-.39.62-.44.34-1.11.51-1.52.86-1.73,1.24-1.49,3.34-2.36,4.97-.79,2.17-6.53,6.01-3.18,7.57,2.76.11,5.27-1.81,7.29-3.53,1.74-1.77-.43,2.5,1.06,1.17.79-.28,2.16-1.97,2.38-.38,1.92,2.2,5.71-3.37,7.63-4.49.75-.37.45,1.79,2.13,1.33,2.78-1.78,5.06-4.7,8.01-6.44.6-.17,1.24.29,1.83.31,1.25-.7-.5-2.1.09-2.92.43-.98,1.05.38,1.66.34,2.18-1.03-.06-2.21,2.86-3.7,3.29,2.47,3.07-.59,2.78-2.99,2.66-2.18,2,.16,4.38-1.06.27-.85-.26-2.03.8-2.44.19-.13.14-.2.13-.44-.45-1.65.54-1.05,1.59-1.42,2.19-1.44-2.18-2.91.92-3.95-.62-1.86,1.36-1.83,2.39-2.7.15-.63.26-1.45-.5-1.69-1.47-.82-1.71-1.44-.72-2.85,1.55-.32,2.7-.87,2.57-2.64-.25-.7-1.48-1.25-1.72-1.94.42-.28.68-.69.69-1.33.25.22.49.45.71.68,1.22.21,1.98-.66,2.28-1.76.62-.6,1.57-1.75,1.16-2.69l.58-.14c.36,2.14,4.4.89,5.63.6.34.19.81.55,1.28.96.06.27.1.56.14.83.21.02.52.05.85.06.34.33.64.63.85.86,1.65-.55,1.76,1.01,1.95,2.25.72.06,2.37.31,2.85-.45,2.03-.43,3.84,1.43,5.71,1.88.47-.44,1.11-1.57,1.4-2.14,1.4.09,3.59-.52,5.09-.11.27-.49.36-1.6.33-2.16.97.11,2.95.53,3.78,1.06,1.04-.98,4.69.34,4.61-1.7,1.48-.34,7.55.94,6.31-2.4,2.65.07,2.4-1.56,5.94-.92l-.12-1.87c3.56-1.4,7.71-2.49,11.29-3.62ZM455.59,794.87c.16.34.23.7.25,1.06-.08-.05-.16-.11-.25-.16-.02-.28-.04-.6,0-.9ZM511.68,825.57l.36.56-3.36.57s-1.14.18-1.26.64c-.12.46.42,1.27-.42,1.27s-4.44-.23-4.44-.23c0,0,.24,1.62-.42,1.33,0,0-2.35.41-2.53.04l-.36.54-3.72-1.45-.18,1.68s-2.58,1.35-3.84.67l-1.34,1.12s-2.74-.06-3.64-.87l-1.31.05-1.18-1.92s-1.27-.68-2.24-.54h-.01l-.78-1.23s-1.68-.86-2.41-.17c-.72.69-2.1.75-2.1.75,0,0-1.02-1.1-1.26-1.04-.24.06-1.8,0-1.86.52-.06.52,0,2.08,0,2.08,0,0-1.29,1.69-3.97-.14-.07-.15-.13-.31-.17-.47l-.14,2.65.42,2.41v.03l.09.49-.09.1-1.36,1.6.33,3-1.57,2.55.44,2.07-1.18.7-1.07,1.61-1.42.31-2.12,1.54-.84,2.24-2.45.31-.91,2.23s-1.3-.31-1.8-.54c-.51-.23-.54,2.31-.54,2.31l-1.84.47-5.04,3.7-1.24-1.7s-3.32,3.31-4.77,4.08c-1.43.77-2.08-1-2.08-1-2.48,2.62-4,.62-4,.62,0,0,.64-2.85,2.88-3.31,2.24-.47,1.12-3.86,1.12-3.86,0,0-1.72-1.92-2.66-1.31-.94.62,2.21-4.47,2.21-4.47,0,0,1.09-1.62.73-3.85-.36-2.23,1.08-2.77,1.08-2.77,0,0,1.65-.88,1.45-3.39-.21-2.51,1.2-1.62,1.2-1.62,0,0,1.92-3.28,1.52-5.34-.14-.69-.27-1.06-.38-1.25-.24.05-.4-.04-.4-.04,0,0,.17-.34.4.04.36-.07.9-.44,1.34-1.89,0,0,.35-1.8-1.28-2.48,0,0,2.37-1.21,3.83-3.1.59.65,1.23.39,1.96.15,1.1-.23,1.54-1.53,2.49-2.01-.73-.35-3.48,1.09-3.48,1.09l-.6-.34c.32-.36.64-.69,1.04-.91-.46-.23-1.59.16-2.57.57l-.55-.37c-1.76-.03-1.6-1-1.6-1,0,0,.8.81,0-1.17-.81-1.98-3.04-1.06-3.04-1.06-.23-.24-1.4-.37-2.12-.42h-.01c-.45-.59-1.06-.81-1.62-.85-.01-.49-.11-1.26-.54-1.81-.68-.85-1.06-1.62-1.06-1.62l-1.74-.23s-.28-.46-1-1.1c-.72-.64-1.56.17-1.56.17l-1.68-.88s-.68-.08-.65-.69c.03-.62-1.55-.82-1.55-.82,0,0-.6.35-.56-.77.04-1.11-1-1.35-1-1.35,0,0-1.28-.42-1.37-.76-.07-.35.85-1.89.97-1.89s-2.72-2.77-2.6-2.89c.11-.12-.21-2.24-.21-2.24l-1.56-1.23v-1.39c-.68-1.11-1.44-5.47-1.44-5.47,0,0,.8,1.51,3.53,3.97,0,0,.95.39,1.28-.19.32-.58,2.8,2,2.8,2,0,0,.36-1.23,1.12-.89.76.35,2.8.08,2.8.08,0,0,1.24-1.19,2.16.43.92,1.62,2.36.27,2.36.27,0,0,.84-.46,1.56.77h1.44l.44.27.61-.08s.95-.5,1.27.31c.32.81,1.68.54,1.68.54l.31,1.38s.9.62,1.26.5c.36-.11,1.32.12,1.32.12,0,0,.12.58.64.73.52.16,1-.27,1-.27,0,0,.84.7,1.8,1.2,0,0,.84.23,1.16-.81,0,0,1.12.65,1.56,0,.44-.66,1.72-.73,1.72-.73,0,0,.44.07,1.2.53.76.47,1.3,1.94,1.3,1.94.1-1,.37-2.06-.14-2.99-.24-.11-.52-.3-.77-.35-.11.04-.21.04-.31,0,.09-.04.2-.04.31,0,.84-.3,1.69-2.56,1.69-2.56,0,0-1.02-.64-1.26-2.03-.24-1.38.78-2.25.78-2.25,0,0,1.62.52,1.56-1.89-.06-2.4-.69-2.5-.69-2.5,0,0,.15-.75,1.11-1.16.96-.4.46-2.54.46-2.54l.62-.75,1.63-.93.59-3.06-1.25-1.04s.41-1.39.66-1.1c.24.29.93-.81.93-.81v-2.77s1.23-2.02,2.79-1.33c1.56.7,1.5-1.21,1.5-1.21,0,0-.18-4.34,1.26-1.45,1.44,2.89,3.3-.52,3.3-.52,0,0,1.32,1.33,1.5,4.45,0,0,3.48-1.85,3.84.93.36,2.77,0,4.16,0,4.16,0,0,.42.12.94.41l.62-.17,1.98.32.75,1.07-.2.85-1.13.36c.15.93-.16,2.1-1.4,3.57,0,0,3.55,2.83,1.98,5.49,0,0,2.23,2.08,1.14,3.18-1.07,1.1.3,1.68.3,1.68,0,0-1.67,1.9-1.19,3.14.48,1.25-.72,1.6-.72,1.6,0,0-.96,1.69-.66,2.63.07.24.18.45.3.64-.12.02-.21.04-.29.05-.17.03-.3.04-.45-.01h-.01c-.07-.02-.16-.06-.27-.12-.07-.04-.16-.08-.25-.14.05.2.13.37.24.53.03.05.07.1.12.15.03.04.06.07.1.11.04.06.1.11.16.16.03.03.06.05.1.08.07.05.13.1.21.14.13.08.26.15.39.21.14.06.27.12.4.16-.62.74-1.86,2.15-2.22,2.18-1.1.06-.96.32-1.68-.1.34,1.25,2.35,1.42,2.35,1.42,0,0,.23.73-.52,1.42-.77.7,0,1.12,0,1.12,0,0,.63.5,2,.93,1.36.42,1.72-.93,1.72-.93,0,0,.04-.7,1.32-.66s.8.7.8.7c0,0,1.8.77,2.16.57.36-.19,1-1.27,1-1.27,0,0,.52.43,1.84.58,1.32.16,1.6,1.2,1.6,1.2,0,0,1.32-.58,2.08-.31s.92,1.35.92,1.35c0,0,2-.81,2.16-.46.16.35-.16,1.46-.16,1.46,1.68-.16,3.09,1,3.09,1,1.4.38.92,1.54.92,1.54,0,0-.52,1.08,1.44.69,1.96-.38,2.96.2,2.96.2,0,0-1.36,1.5.4,1.54s2.76,1.65,2.76,1.65l2.48.62.16,1.28c2.44-.72,7.16-.65,7.16-.65,0,0-3.94.92-6.1,2.86Z"/>
    </g>
  </g>
</svg>