<?xml version="1.0" encoding="UTF-8"?> <svg xmlns="http://www.w3.org/2000/svg" width="177.178" height="137.013" viewBox="0 0 177.178 137.013"><g id="Group_541" data-name="Group 541" transform="translate(409.625 -198)"><g id="Group_539" data-name="Group 539" transform="translate(-409.625 265.848)"><g id="Group_537" data-name="Group 537"><g id="Group_536" data-name="Group 536" transform="translate(0 12.964)"><path id="Path_693" data-name="Path 693" d="M-403.294,299.01c.355,6.224,4.7,10.785,11.5,10.785,5.242,0,8.137-2.07,9.94-5.214h6.307c-1.807,4.825-6.549,10.126-16.584,10.126-12.022,0-17.491-8.491-17.491-17.017,0-9.794,6.748-17.211,17.334-17.211,12.74,0,17.229,9.018,17.229,16.927,0,.55,0,.973-.021,1.6Zm21.657-4.333c-.289-3.854-2.405-9.45-10.7-9.45-6.879,0-10.246,4.148-10.827,9.45Z" transform="translate(409.625 -280.479)" fill="#003d4c"></path><path id="Path_694" data-name="Path 694" d="M-367.927,281.4c3.058,7.463,10.362,23.318,11.6,26.808h.088c.92-2.768,3.173-8.236,11.4-26.808h6.461l-14.687,32.434h-6.889L-374.78,281.4Z" transform="translate(408.921 -280.498)" fill="#003d4c"></path><path id="Path_695" data-name="Path 695" d="M-302.447,297.583c0,9.009-6.028,17.124-18.08,17.124-11.351,0-17.69-8.114-17.69-17.081,0-9.3,6.718-17.147,18.019-17.147C-308.59,280.479-302.447,289.008-302.447,297.583Zm-29.309.043c0,6.154,4.07,12.084,11.447,12.084,7.689,0,11.359-5.538,11.359-12.022,0-6.507-4.056-12.212-11.515-12.212C-328.087,285.476-331.756,291.122-331.756,297.626Z" transform="translate(408.182 -280.479)" fill="#003d4c"></path><path id="Path_696" data-name="Path 696" d="M-257.737,299.01c.355,6.224,4.7,10.785,11.5,10.785,5.243,0,8.138-2.07,9.941-5.214h6.307c-1.807,4.825-6.549,10.126-16.584,10.126-12.022,0-17.491-8.491-17.491-17.017,0-9.794,6.747-17.211,17.334-17.211,12.739,0,17.229,9.018,17.229,16.927,0,.55,0,.973-.022,1.6Zm21.657-4.333c-.289-3.854-2.405-9.45-10.7-9.45-6.878,0-10.245,4.148-10.826,9.45Z" transform="translate(406.683 -280.479)" fill="#003d4c"></path></g><path id="Path_697" data-name="Path 697" d="M-279.8,293.711l15.541-12.6h-7.981c-5.213,4.4-14.936,12.405-18.5,15.515V267.248l-6.307,6.307v39.988h6.307v-11.5l6.3-4.857,13.846,16.36h7.973Z" transform="translate(407.349 -267.248)" fill="#003d4c"></path></g><g id="Group_538" data-name="Group 538" transform="translate(54.607 57.382)"><path id="Path_698" data-name="Path 698" d="M-347.881,337.524a6.751,6.751,0,0,1-3.11-.692,5.144,5.144,0,0,1-2.127-2,5.918,5.918,0,0,1-.773-3.065,6,6,0,0,1,.75-3,5.433,5.433,0,0,1,2.15-2.1,6.554,6.554,0,0,1,3.228-.773,7.575,7.575,0,0,1,1.882.245,6.036,6.036,0,0,1,1.644.661l-.372,1.919a7.036,7.036,0,0,0-3.124-.8,4.1,4.1,0,0,0-1.964.461,3.334,3.334,0,0,0-1.354,1.324,4.023,4.023,0,0,0-.491,2.023,3.68,3.68,0,0,0,1.042,2.759,3.837,3.837,0,0,0,2.811,1.02,6.707,6.707,0,0,0,1.651-.223,7.68,7.68,0,0,0,1.652-.625l.238,1.965a6.718,6.718,0,0,1-1.741.669A8.424,8.424,0,0,1-347.881,337.524Z" transform="translate(353.891 -325.816)" fill="#003d4c"></path><path id="Path_699" data-name="Path 699" d="M-335.87,337.6a6.155,6.155,0,0,1-2.99-.737,5.621,5.621,0,0,1-2.164-2.083,5.833,5.833,0,0,1-.81-3.072,5.888,5.888,0,0,1,.751-2.93,5.72,5.72,0,0,1,2.12-2.15,5.952,5.952,0,0,1,3.094-.811,6.186,6.186,0,0,1,3.005.736,5.634,5.634,0,0,1,2.164,2.083,5.837,5.837,0,0,1,.811,3.073,5.889,5.889,0,0,1-.751,2.931,5.7,5.7,0,0,1-2.127,2.15A6,6,0,0,1-335.87,337.6Zm0-2.024a3.61,3.61,0,0,0,1.837-.475,3.419,3.419,0,0,0,1.309-1.369,4.179,4.179,0,0,0,.484-2.023,4.238,4.238,0,0,0-.447-1.949,3.472,3.472,0,0,0-1.28-1.4,3.518,3.518,0,0,0-1.9-.521,3.571,3.571,0,0,0-1.83.476,3.447,3.447,0,0,0-1.3,1.362,4.163,4.163,0,0,0-.484,2.03,4.232,4.232,0,0,0,.447,1.949,3.5,3.5,0,0,0,1.272,1.4A3.474,3.474,0,0,0-335.87,335.573Z" transform="translate(353.647 -325.814)" fill="#003d4c"></path><path id="Path_700" data-name="Path 700" d="M-326.9,326.058h2.023l5.921,7.854v-7.854h2.157v11.306h-2.023l-5.921-7.826v7.826H-326.9Z" transform="translate(353.345 -325.819)" fill="#003d4c"></path><path id="Path_701" data-name="Path 701" d="M-309.938,337.6a8.993,8.993,0,0,1-2.128-.261,5.157,5.157,0,0,1-1.681-.677l.223-1.949a6.084,6.084,0,0,0,1.667.729,6.757,6.757,0,0,0,1.829.268,2.806,2.806,0,0,0,1.585-.379,1.215,1.215,0,0,0,.557-1.064,1.122,1.122,0,0,0-.468-.937,6.467,6.467,0,0,0-1.778-.774,6.368,6.368,0,0,1-2.633-1.383,2.9,2.9,0,0,1-.789-2.127,2.97,2.97,0,0,1,.483-1.68,3.184,3.184,0,0,1,1.406-1.14,5.291,5.291,0,0,1,2.157-.409,7.5,7.5,0,0,1,1.785.223,6.232,6.232,0,0,1,1.591.61l-.313,1.889a6.312,6.312,0,0,0-1.449-.6,5.641,5.641,0,0,0-1.54-.231,2.486,2.486,0,0,0-1.436.343,1.13,1.13,0,0,0-.483.982,1.11,1.11,0,0,0,.186.662,1.6,1.6,0,0,0,.609.468,9.353,9.353,0,0,0,1.213.461,7.331,7.331,0,0,1,2.871,1.465,2.869,2.869,0,0,1,.849,2.15,2.955,2.955,0,0,1-1.153,2.462A5.014,5.014,0,0,1-309.938,337.6Z" transform="translate(353.08 -325.814)" fill="#003d4c"></path><path id="Path_702" data-name="Path 702" d="M-297.649,337.6a4.967,4.967,0,0,1-3.674-1.309,5.009,5.009,0,0,1-1.309-3.7v-6.53h2.276v6.352q0,3.167,2.722,3.168,2.738,0,2.738-3.168v-6.352h2.276v6.53a5.009,5.009,0,0,1-1.309,3.7A5.03,5.03,0,0,1-297.649,337.6Z" transform="translate(352.855 -325.819)" fill="#003d4c"></path><path id="Path_703" data-name="Path 703" d="M-289.119,326.058h2.276v9.431h5.117v1.874h-7.393Z" transform="translate(352.582 -325.819)" fill="#003d4c"></path><path id="Path_704" data-name="Path 704" d="M-277.867,327.932H-281.5v-1.874h9.536v1.874h-3.63v9.431h-2.275Z" transform="translate(352.428 -325.819)" fill="#003d4c"></path><path id="Path_705" data-name="Path 705" d="M-269.244,326.058h2.276v11.306h-2.276Z" transform="translate(352.18 -325.819)" fill="#003d4c"></path><path id="Path_706" data-name="Path 706" d="M-263.55,326.058h2.023l5.921,7.854v-7.854h2.156v11.306h-2.023l-5.921-7.826v7.826h-2.157Z" transform="translate(352.065 -325.819)" fill="#003d4c"></path><path id="Path_707" data-name="Path 707" d="M-244.334,337.524a7.167,7.167,0,0,1-3.206-.685,5.116,5.116,0,0,1-2.172-1.978,5.765,5.765,0,0,1-.781-3.035,6.044,6.044,0,0,1,.774-3.078,5.378,5.378,0,0,1,2.224-2.1,7.191,7.191,0,0,1,3.384-.758,9.134,9.134,0,0,1,2.038.23,7.458,7.458,0,0,1,1.83.661l-.372,1.964a7.442,7.442,0,0,0-1.719-.617,8.169,8.169,0,0,0-1.867-.217,4.45,4.45,0,0,0-2.06.461,3.357,3.357,0,0,0-1.406,1.332,3.966,3.966,0,0,0-.506,2.03,3.654,3.654,0,0,0,1.063,2.782,4.048,4.048,0,0,0,2.909,1.013,8.489,8.489,0,0,0,2.083-.284v-2.41h-2.261v-1.814h4.373v5.667A10.827,10.827,0,0,1-244.334,337.524Z" transform="translate(351.801 -325.816)" fill="#003d4c"></path></g></g><g id="Group_540" data-name="Group 540" transform="translate(-348.541 198)"><path id="Path_708" data-name="Path 708" d="M-321.478,219.152l-21.152-5.667-4.651,4.65,1.7,6.352,21.154,5.667,4.649-4.648ZM-327.145,198l-9.537,9.536,13.027,3.491Zm-12.766,47.64,9.527-9.527-13.014-3.487Z" transform="translate(347.281 -198)" fill="#ff5c39"></path><path id="Path_709" data-name="Path 709" d="M-319.624,226.073l-4.648,4.649,5.667,21.154,6.352,1.7,4.65-4.651-5.667-21.152Zm14.478,3.879,3.491,13.027,9.536-9.537Zm-34.613,16.256,13.014,3.487-3.487-13.015Z" transform="translate(347.129 -198.567)" fill="#bc204b"></path><path id="Path_710" data-name="Path 710" d="M-299.225,205.37l-6.35-1.7-15.487,15.486,1.7,6.351,6.352,1.7,15.485-15.484Zm3.88,14.478-9.537,9.536,13.027,3.49ZM-326.73,198l3.487,13.014,9.527-9.526Z" transform="translate(346.866 -198)" fill="#ef3340"></path></g></g></svg> 