<?xml version="1.0" standalone="no"?>
<!DOCTYPE svg PUBLIC "-//W3C//DTD SVG 20010904//EN"
 "http://www.w3.org/TR/2001/REC-SVG-20010904/DTD/svg10.dtd">
<svg version="1.0" xmlns="http://www.w3.org/2000/svg"
 width="920.000000pt" height="920.000000pt" viewBox="0 0 920.000000 920.000000"
 preserveAspectRatio="xMidYMid meet">
<metadata>
Created by potrace 1.14, written by Peter Selinger 2001-2017
</metadata>
<g transform="translate(0.000000,920.000000) scale(0.100000,-0.100000)"
fill="#000000" stroke="none">
<path d="M4448 8874 c-4 -8 -4 -40 1 -81 2 -21 54 -75 86 -89 16 -7 24 -13 17
-14 -28 0 -72 -42 -83 -78 -9 -31 -16 -38 -39 -40 -16 -1 -68 -14 -117 -28
-334 -96 -588 -354 -686 -695 -58 -199 -50 -415 20 -614 25 -69 78 -175 114
-226 l19 -27 100 39 c113 45 297 95 380 105 30 3 58 8 61 10 11 7 188 18 279
17 98 0 249 -10 272 -17 7 -3 36 -7 65 -10 81 -9 279 -63 383 -105 l95 -39 18
22 c27 33 111 205 130 266 79 258 52 549 -70 778 -152 284 -435 484 -745 527
-26 4 -47 10 -46 14 4 35 -21 71 -68 96 -22 11 -24 15 -10 15 54 0 116 74 116
137 0 42 -11 47 -30 15 -21 -34 -75 -62 -120 -62 -40 0 -102 34 -122 67 -8 14
-17 22 -20 17z"/>
<path d="M2699 7819 c-198 -30 -395 -127 -521 -256 -74 -75 -84 -88 -140 -176
-82 -128 -206 -233 -331 -279 -44 -16 -55 -24 -47 -33 14 -17 68 -42 100 -48
41 -7 116 20 143 52 l24 29 -1 -48 -1 -48 -50 -18 c-107 -38 -285 -134 -404
-217 -111 -78 -115 -82 -265 -231 -72 -71 -153 -144 -181 -162 -59 -39 -141
-70 -211 -80 -27 -3 -50 -7 -52 -9 -6 -5 28 -72 49 -94 31 -33 99 -61 142 -58
20 2 37 2 37 0 0 -2 -25 -54 -55 -116 -55 -114 -132 -323 -122 -333 7 -7 46
13 76 40 l23 21 -7 -35 c-23 -100 7 -267 62 -346 94 -137 88 -124 88 -200 0
-44 -5 -77 -13 -87 -11 -13 -10 -17 5 -26 54 -28 133 -14 184 35 l26 25 39
-36 c177 -161 428 -236 677 -202 l59 8 -7 -33 c-26 -118 -167 -189 -278 -140
-25 11 -58 34 -75 51 l-30 32 -11 -32 c-21 -62 -9 -150 28 -193 15 -18 15 -19
-14 -12 -41 10 -82 51 -93 95 l-8 36 -37 -39 c-20 -22 -42 -54 -48 -73 -12
-38 -17 -39 -67 -14 -43 22 -60 41 -87 94 l-20 38 -26 -31 c-33 -40 -50 -96
-50 -170 -1 -79 39 -162 98 -205 48 -34 51 -41 23 -50 -48 -15 -1 -113 64
-135 29 -9 66 -14 150 -19 19 -1 19 -2 -2 -21 -51 -48 -64 -130 -28 -184 l17
-27 27 19 c34 24 81 35 115 27 24 -6 20 -10 -41 -40 -138 -69 -233 -210 -241
-356 -2 -44 -1 -47 26 -52 15 -3 45 1 66 8 34 12 37 11 33 -4 -14 -49 -29
-109 -33 -131 -41 -261 -13 -489 84 -697 75 -160 167 -278 350 -445 37 -34 55
-59 63 -90 13 -48 6 -112 -16 -145 -14 -22 -13 -23 11 -23 38 0 86 24 118 57
34 36 57 116 46 157 -5 17 -7 31 -5 33 1 1 18 -9 36 -22 53 -39 102 -48 265
-50 133 -1 155 -3 190 -22 49 -27 88 -62 122 -114 31 -46 41 -42 79 33 44 86
42 236 -4 306 -11 17 -12 26 -4 34 8 8 23 -16 56 -85 71 -151 167 -278 293
-388 36 -32 154 -109 208 -136 50 -26 206 -81 248 -89 18 -3 48 -9 69 -13 59
-14 247 -11 328 5 162 31 257 8 347 -82 29 -29 54 -47 54 -41 4 37 -3 92 -15
115 -30 57 -106 104 -160 98 l-27 -3 27 28 c34 35 26 56 -23 64 -21 3 -51 13
-66 21 -15 9 -51 18 -80 21 -43 4 -60 0 -99 -20 -46 -25 -46 -25 -51 -5 -4 15
-11 19 -24 14 -102 -40 -248 -24 -361 39 -24 14 -48 22 -54 19 -15 -9 -101 -6
-128 5 -22 8 -22 10 -5 11 64 5 145 33 145 50 0 5 -9 14 -20 20 -20 11 -20 11
6 38 31 32 44 63 44 103 0 22 -5 29 -20 30 -11 1 -26 2 -32 3 -7 1 -30 -3 -50
-10 -33 -11 -38 -11 -50 8 -14 20 -14 20 -43 -5 -34 -28 -112 -57 -153 -57
-82 0 -157 51 -178 121 -13 43 -9 106 11 153 17 41 34 48 30 12 -7 -57 66
-155 132 -177 159 -52 348 61 388 233 39 172 -61 345 -225 389 -58 15 -153 12
-197 -6 -20 -8 -37 -15 -38 -15 -2 0 -3 37 -2 83 2 157 -22 253 -90 369 -29
50 -108 153 -150 197 -24 24 -53 89 -53 119 0 25 -3 28 -31 26 -93 -6 -199 89
-199 178 0 21 4 25 20 21 50 -13 82 67 36 89 -41 18 -85 -16 -125 -95 -31 -60
-35 -76 -35 -150 -1 -45 3 -92 7 -104 7 -20 4 -22 -30 -28 -227 -34 -404 -200
-408 -385 -4 -152 75 -289 205 -355 94 -48 233 -48 279 0 45 46 26 135 -33
154 -56 19 -94 2 -123 -53 l-15 -29 -19 24 c-108 136 -39 341 135 399 46 15
121 8 171 -16 42 -20 44 -30 8 -37 -73 -14 -159 -115 -170 -196 l-5 -39 43 15
c115 40 259 -28 310 -145 52 -120 -13 -276 -137 -328 -53 -22 -62 -19 -59 24
3 44 -10 77 -43 114 -35 39 -69 44 -101 16 -136 -122 -332 -149 -508 -72 -152
67 -267 218 -277 363 -3 36 -2 77 1 93 6 29 6 29 21 7 8 -11 30 -27 48 -35 91
-38 197 9 219 97 5 22 0 29 -35 53 -23 15 -55 42 -71 59 -34 36 -84 135 -94
187 l-7 35 31 -33 c41 -43 76 -55 130 -47 l43 7 -7 36 c-32 168 -38 300 -20
427 23 158 101 341 208 485 99 133 136 210 162 335 19 92 21 198 5 285 -11 62
-11 65 12 83 53 42 142 136 176 187 120 181 111 379 -25 531 -146 161 -386
204 -585 103 -172 -87 -226 -259 -119 -378 76 -84 227 -88 261 -6 26 63 8 114
-50 142 l-32 15 46 23 c80 38 174 13 221 -59 48 -72 36 -173 -26 -225 -15 -13
-50 -32 -76 -42 -26 -9 -59 -28 -73 -40 l-26 -24 -17 33 c-49 91 -185 87 -222
-5 -20 -50 -20 -48 20 -41 29 5 39 1 65 -25 84 -84 -26 -202 -194 -207 -123
-4 -240 61 -294 164 -39 71 -40 97 -6 163 41 82 41 179 -1 273 -16 35 -12 43
11 24 24 -19 130 -17 171 4 17 9 43 31 57 49 l25 33 -52 26 c-242 124 -302
472 -115 675 43 47 58 49 58 6 0 -15 6 -43 13 -62 51 -140 164 -228 316 -247
39 -5 43 -3 37 13 -13 44 -26 112 -29 152 l-4 42 35 -41 c96 -112 272 -168
419 -134 151 35 207 183 112 298 -67 81 -170 98 -249 39 -37 -27 -44 -29 -71
-19 -41 16 -88 67 -104 113 -63 183 208 374 510 359 76 -4 142 -21 222 -56
159 -71 357 -59 498 29 66 42 139 123 174 193 37 76 45 109 45 199 -1 89 -7
120 -43 196 -61 131 -199 234 -376 280 -101 27 -263 37 -356 23z m397 -185
c89 -30 134 -80 134 -146 l0 -33 -19 31 c-26 42 -74 75 -120 81 -114 15 -231
-105 -245 -251 -5 -49 16 -135 43 -181 l22 -37 -33 6 c-120 21 -374 28 -508
13 -115 -12 -307 -54 -390 -85 -23 -9 41 43 76 61 43 22 82 71 90 113 l6 35
18 -29 c10 -16 32 -39 49 -51 l31 -22 1 33 c2 114 61 238 152 321 23 20 44 37
48 37 4 0 10 -15 13 -34 4 -19 13 -39 21 -46 12 -10 17 -7 25 16 19 52 53 113
72 130 17 17 17 15 -2 -28 -25 -56 -36 -138 -19 -138 7 0 21 8 32 18 11 9 18
12 14 6 -3 -6 12 -32 33 -58 22 -27 40 -57 40 -67 0 -53 80 18 83 74 1 25 6
34 17 32 8 -1 25 1 37 6 20 7 21 9 7 49 -13 38 -13 46 3 79 36 73 159 103 269
65z"/>
<path d="M6180 7811 c-93 -23 -145 -42 -218 -81 -226 -122 -311 -395 -192
-618 125 -235 419 -322 682 -203 72 33 163 52 247 53 120 1 301 -62 384 -133
115 -98 122 -242 16 -318 -43 -32 -73 -39 -84 -21 -13 21 -86 50 -125 50 -106
0 -192 -88 -192 -196 0 -79 54 -145 138 -170 149 -43 333 10 438 127 26 28 36
34 36 22 0 -23 -26 -142 -36 -167 -7 -18 -3 -19 55 -13 77 7 155 44 211 100
47 47 98 145 102 195 1 19 6 36 11 39 11 7 71 -59 103 -113 75 -127 71 -310
-10 -448 -31 -54 -128 -142 -173 -158 -41 -15 -41 -29 0 -67 55 -53 141 -69
206 -40 l41 18 -15 -22 c-24 -37 -42 -127 -38 -186 3 -32 17 -80 33 -114 24
-51 27 -64 18 -95 -23 -85 -102 -167 -194 -202 -119 -44 -277 -12 -331 70 -30
44 -29 73 6 112 23 26 36 32 65 31 40 -1 43 5 21 47 -43 84 -189 76 -225 -11
-11 -27 -15 -28 -23 -14 -5 9 -42 32 -81 50 -40 18 -84 47 -99 64 -119 142 34
339 207 267 36 -15 49 -36 22 -36 -8 0 -26 -14 -41 -32 -23 -27 -26 -39 -22
-75 9 -81 69 -115 165 -93 93 21 162 111 162 212 0 76 -75 175 -169 223 -206
104 -428 69 -582 -92 -89 -93 -125 -190 -116 -313 10 -147 112 -307 271 -423
16 -12 17 -17 6 -38 -8 -14 -15 -67 -16 -134 -5 -202 38 -336 161 -500 109
-146 166 -265 207 -434 28 -112 30 -339 5 -451 -10 -42 -13 -78 -8 -83 15 -15
99 -9 131 9 16 10 30 21 30 24 0 3 9 16 20 30 l19 25 -10 -45 c-25 -111 -81
-192 -183 -265 -25 -18 -27 -22 -16 -50 20 -52 68 -91 127 -101 37 -7 103 15
128 42 19 21 24 22 29 8 10 -27 6 -106 -8 -160 -50 -187 -240 -337 -440 -348
-109 -6 -254 42 -330 109 -34 30 -48 31 -87 8 -40 -24 -68 -83 -63 -133 3 -27
0 -40 -9 -40 -28 1 -98 41 -132 76 -47 48 -67 96 -70 169 -4 103 42 177 143
227 66 33 132 39 187 18 15 -6 30 -10 35 -10 10 0 -6 74 -24 109 -22 41 -87
98 -136 119 l-45 20 47 21 c89 41 183 27 258 -38 75 -64 113 -167 91 -245 -5
-21 -22 -58 -37 -83 l-27 -46 -18 36 c-22 43 -45 57 -92 57 -38 0 -82 -35 -89
-73 -7 -37 11 -84 39 -103 22 -14 48 -18 113 -18 75 0 93 3 144 29 78 39 138
100 178 182 30 61 33 76 33 158 0 79 -3 97 -29 150 -59 120 -199 222 -342 249
-50 9 -68 17 -65 27 30 120 -3 263 -76 330 -41 38 -60 42 -84 18 -34 -34 -3
-92 46 -83 21 4 23 1 18 -28 -15 -95 -99 -169 -193 -170 -34 0 -37 -3 -38 -28
-1 -41 -24 -79 -112 -188 -139 -172 -183 -292 -182 -492 l1 -87 -51 18 c-112
38 -251 1 -334 -88 -125 -134 -112 -347 28 -467 80 -69 208 -95 290 -58 72 32
111 87 130 187 8 39 40 -56 41 -121 1 -51 -3 -68 -25 -101 -45 -68 -130 -93
-223 -66 -27 8 -65 26 -83 40 -33 24 -52 24 -52 -3 0 -17 -12 -18 -27 -3 -13
13 -80 21 -106 13 -34 -11 -3 -118 42 -144 14 -8 13 -11 -6 -25 -13 -9 -23
-19 -23 -24 0 -10 89 -41 117 -41 12 0 24 -4 27 -9 9 -14 -45 -23 -97 -17 -36
5 -55 0 -103 -24 -33 -16 -84 -35 -114 -41 -53 -11 -180 -7 -228 7 -18 5 -24
2 -29 -14 -5 -20 -5 -20 -40 4 -45 30 -116 32 -188 5 -27 -10 -63 -23 -79 -27
-39 -12 -42 -25 -12 -57 l25 -27 -30 0 c-77 0 -152 -66 -167 -148 -5 -28 -6
-55 -2 -61 3 -7 28 11 61 42 85 82 190 109 312 80 93 -22 298 -21 410 2 62 13
196 59 252 87 236 119 399 287 514 531 23 48 46 87 51 87 15 0 12 -12 -12 -66
-43 -98 -27 -250 35 -324 l25 -29 36 54 c40 57 90 96 146 114 37 11 57 12 209
11 111 0 150 9 213 49 l47 30 -9 -25 c-21 -56 -5 -124 41 -175 30 -33 57 -47
104 -55 l36 -5 -17 33 c-22 43 -23 124 -1 169 9 20 38 54 63 75 207 169 367
418 413 644 6 30 14 66 17 80 3 14 7 84 9 155 3 138 -10 252 -44 362 -9 31 -9
32 16 22 42 -16 91 -11 102 10 6 10 9 20 7 22 -2 2 -7 26 -10 53 -17 123 -118
260 -235 315 -33 15 -58 31 -54 35 13 13 80 5 116 -14 20 -11 39 -20 42 -20
11 0 35 61 35 90 0 42 -23 94 -51 114 -13 9 -19 16 -14 17 6 0 19 2 30 4 11 2
46 6 78 9 68 7 89 16 115 53 32 46 33 70 5 91 l-24 18 45 32 c110 79 134 268
48 380 l-26 34 -11 -31 c-13 -40 -70 -100 -112 -117 -40 -17 -43 -17 -43 -1 0
20 -40 89 -63 108 -28 23 -37 23 -37 2 0 -30 -37 -81 -70 -98 -18 -9 -34 -15
-36 -12 -2 2 5 24 16 48 22 49 26 125 8 164 -13 29 -24 32 -32 8 -8 -23 -61
-59 -106 -71 -107 -28 -235 50 -254 156 -3 18 -2 31 2 28 10 -6 137 -19 187
-19 191 0 419 91 545 217 l35 35 20 -23 c35 -41 83 -59 137 -53 27 4 52 9 57
12 5 3 3 26 -5 52 -25 81 -13 122 70 246 72 107 96 230 72 360 l-7 37 28 -26
c29 -27 63 -44 74 -38 14 8 -96 293 -152 391 -16 29 -29 54 -29 56 0 2 19 4
43 4 51 1 83 13 124 47 28 24 70 93 61 102 -2 2 -22 6 -44 9 -71 11 -164 46
-222 85 -31 22 -106 89 -166 150 -205 209 -401 344 -644 444 -64 26 -77 35
-80 56 -1 14 -5 36 -8 50 l-5 25 27 -29 c35 -37 85 -57 135 -54 43 2 115 37
110 53 -2 6 -27 20 -56 31 -132 54 -238 147 -330 289 -127 197 -301 325 -535
392 -115 34 -319 40 -430 14z m124 -180 c52 -26 77 -66 70 -112 -12 -71 -11
-74 21 -79 23 -4 31 -11 33 -30 3 -38 23 -70 54 -86 34 -18 39 -18 32 0 -6 16
25 76 38 76 4 0 15 14 23 31 15 29 18 30 34 15 10 -9 21 -16 25 -16 15 0 -4
105 -27 152 -13 26 -20 45 -15 42 15 -9 62 -86 84 -138 l22 -50 16 32 c9 17
16 38 16 47 0 29 28 15 81 -43 77 -83 115 -163 126 -261 3 -31 7 -57 8 -59 7
-8 59 34 75 61 l18 28 6 -28 c12 -47 56 -101 92 -113 19 -7 34 -16 34 -21 0
-5 15 -19 33 -30 17 -12 23 -18 13 -15 -111 37 -296 77 -425 91 -62 6 -276 7
-336 0 -100 -10 -134 -15 -149 -21 -21 -8 -21 -6 10 61 67 145 15 317 -116
389 -70 39 -174 11 -215 -56 l-20 -33 -3 27 c-14 116 205 205 342 139z"/>
<path d="M4558 7055 c-2 -2 -17 -5 -34 -8 -18 -3 -92 -27 -165 -55 -346 -130
-800 -255 -1159 -318 -14 -3 -61 -11 -105 -19 -116 -21 -121 -22 -262 -41
-144 -19 -177 -37 -190 -103 -14 -74 -5 -953 11 -1136 2 -22 7 -87 11 -145 4
-58 8 -112 10 -120 1 -8 6 -49 9 -90 9 -97 24 -222 42 -350 5 -36 42 -260 49
-295 107 -576 209 -867 388 -1117 166 -231 463 -551 727 -784 306 -268 625
-484 717 -484 49 0 428 261 666 458 128 106 173 148 322 297 240 239 388 423
532 660 58 94 148 328 191 496 34 130 78 340 87 414 4 28 8 57 10 65 4 14 8
44 20 143 3 23 8 53 10 67 2 14 7 54 10 90 3 36 7 75 9 85 2 11 7 49 10 85 4
36 9 81 11 100 2 19 7 69 10 110 4 41 8 86 10 100 2 14 7 75 11 135 3 61 8
128 9 150 3 42 15 293 20 430 2 44 4 188 5 320 4 356 -10 399 -130 409 -69 6
-191 25 -330 50 -115 21 -123 23 -236 47 -55 11 -110 23 -124 25 -14 3 -97 23
-185 45 -306 76 -510 140 -730 227 -105 42 -154 56 -197 58 -32 1 -59 0 -60
-1z m262 -265 c282 -111 774 -244 1126 -304 16 -3 45 -8 64 -11 19 -3 61 -10
92 -15 32 -6 69 -12 82 -14 13 -2 50 -7 82 -11 88 -10 91 -12 111 -63 16 -42
18 -79 17 -322 -1 -256 -9 -538 -19 -655 -2 -27 -7 -99 -11 -160 -4 -60 -8
-119 -9 -130 -1 -11 -5 -56 -9 -100 -4 -44 -9 -91 -11 -105 -2 -14 -6 -52 -10
-85 -8 -73 -14 -128 -20 -175 -2 -19 -7 -57 -10 -85 -10 -87 -14 -116 -19
-143 -3 -15 -8 -45 -11 -67 -24 -173 -82 -417 -135 -570 -100 -288 -287 -561
-600 -876 -155 -155 -270 -257 -430 -382 -144 -113 -465 -327 -489 -327 -30 0
-156 67 -257 135 -450 307 -987 857 -1176 1205 -64 118 -139 335 -183 526 -7
33 -64 308 -69 334 -5 32 -15 87 -21 125 -8 47 -35 236 -41 280 -2 22 -6 56
-9 75 -3 19 -7 67 -11 105 -3 39 -8 77 -9 85 -2 8 -6 65 -10 125 -4 61 -9 124
-12 140 -3 17 -7 251 -10 521 -4 421 -3 496 10 527 21 50 33 54 177 72 25 3
56 8 70 10 14 3 41 7 60 10 432 68 933 199 1300 340 52 20 115 39 140 42 25 3
46 7 48 8 7 7 114 -26 212 -65z"/>
<path d="M4408 6678 c-364 -133 -685 -219 -1113 -297 -60 -11 -128 -23 -150
-26 -22 -2 -49 -7 -60 -9 -12 -2 -47 -7 -78 -11 -69 -9 -95 -28 -106 -75 -15
-71 -5 -875 14 -1090 2 -19 6 -69 9 -110 4 -41 8 -91 11 -110 2 -19 7 -60 10
-90 5 -50 10 -92 20 -160 2 -14 7 -45 10 -70 6 -43 49 -297 60 -350 3 -14 8
-38 11 -54 2 -16 6 -32 8 -35 2 -3 7 -22 10 -41 3 -19 8 -46 11 -60 3 -14 8
-35 10 -46 26 -123 112 -361 167 -464 112 -206 365 -505 669 -785 281 -261
632 -500 701 -480 22 7 327 206 351 229 7 6 37 29 67 51 168 122 445 377 598
550 77 87 243 310 285 382 124 215 220 543 272 933 3 25 8 56 10 70 4 26 9 71
20 175 4 33 8 71 10 84 3 14 7 52 10 85 3 34 8 81 10 106 3 25 7 72 10 105 2
33 7 98 10 145 24 318 38 922 23 995 -20 94 -26 100 -113 110 -27 3 -62 7 -78
10 -112 20 -147 25 -182 30 -22 4 -47 8 -55 10 -8 2 -30 7 -49 10 -64 11 -315
66 -396 86 -44 12 -87 22 -95 24 -85 17 -407 122 -558 181 -149 59 -183 58
-364 -8z"/>
<path d="M520 3826 c-71 -15 -141 -51 -179 -90 -39 -40 -284 -471 -312 -547
-32 -86 -24 -201 19 -285 37 -73 140 -173 248 -240 41 -25 74 -47 74 -49 0 -4
-95 -205 -168 -355 -62 -128 -76 -182 -70 -264 12 -144 84 -223 349 -383 188
-113 371 -184 539 -209 25 -3 52 -8 60 -9 8 -2 44 -6 80 -10 36 -3 76 -8 90
-10 14 -3 53 -7 85 -10 33 -3 71 -7 85 -10 14 -3 43 -7 65 -10 55 -7 75 -11
159 -34 151 -42 224 -85 427 -252 149 -123 256 -194 409 -270 136 -68 207 -93
327 -114 105 -19 342 -28 398 -16 22 5 57 12 79 15 21 4 41 8 45 11 4 2 18 6
32 9 13 3 51 12 84 21 72 18 209 42 285 49 30 3 80 8 110 12 114 13 261 5 376
-20 34 -7 116 -48 120 -61 7 -17 -14 -67 -25 -61 -5 4 -12 -13 -16 -36 -4 -24
-16 -54 -26 -67 -26 -33 -25 -69 4 -81 12 -5 16 -9 9 -9 -7 -1 -18 -13 -24
-29 -7 -15 -23 -42 -36 -59 -22 -30 -23 -33 -7 -39 9 -4 29 0 44 8 14 9 40 14
57 12 23 -3 36 3 52 21 12 14 28 22 39 19 11 -3 32 8 52 26 18 16 41 30 49 30
8 0 13 3 10 6 -9 8 34 49 52 49 8 0 15 5 15 10 0 17 16 36 25 30 5 -3 14 5 21
17 18 34 31 44 66 51 49 10 116 44 161 83 22 19 47 34 54 34 8 0 18 3 22 8 8
7 13 8 42 11 8 0 13 4 11 9 -3 4 14 8 36 8 53 2 87 8 112 21 25 13 284 4 359
-12 12 -2 43 -7 69 -10 71 -8 126 -20 292 -61 123 -30 169 -37 255 -38 135 -1
236 10 350 35 25 6 52 12 60 14 33 7 130 49 220 96 136 69 259 152 380 253
126 107 209 166 275 199 49 24 132 55 168 62 10 3 27 7 37 10 40 13 214 40
320 50 36 3 81 8 100 10 19 3 55 7 80 10 40 5 115 18 178 31 198 40 599 257
709 384 64 74 99 190 81 270 -4 19 -9 44 -12 55 -2 11 -46 106 -96 210 -98
201 -132 277 -128 280 2 1 26 14 53 30 75 43 181 130 225 186 75 95 101 229
67 340 -20 64 -281 520 -320 560 -18 17 -61 45 -97 62 -53 25 -79 31 -146 34
-109 3 -164 -16 -226 -78 -61 -61 -77 -113 -74 -239 4 -162 61 -283 173 -365
23 -16 42 -32 42 -35 1 -4 -26 -12 -60 -19 -152 -31 -395 -114 -522 -178 -184
-92 -222 -226 -115 -402 153 -252 248 -410 248 -414 0 -2 -26 -8 -57 -12 -72
-8 -64 -7 -272 -50 -208 -44 -354 -90 -476 -150 -105 -51 -160 -91 -277 -197
-151 -138 -242 -198 -368 -242 -151 -52 -289 -62 -480 -32 -229 36 -570 41
-735 11 -180 -34 -326 -106 -432 -215 -29 -30 -53 -49 -53 -42 0 6 -27 39 -59
72 -56 57 -59 62 -50 93 7 26 6 34 -8 45 -10 7 -17 22 -15 32 2 11 -1 20 -6
20 -5 0 -12 9 -15 20 -3 11 -12 20 -20 20 -8 0 -22 21 -32 48 -10 26 -22 53
-28 60 -13 17 -47 15 -47 -3 0 -8 5 -15 10 -15 6 0 10 5 10 11 0 5 5 7 10 4
13 -8 13 -65 0 -65 -5 0 -15 9 -22 19 -15 24 -38 10 -31 -18 3 -12 -2 -20 -16
-24 -22 -5 -45 -52 -37 -74 3 -7 1 -13 -4 -13 -5 0 -8 -12 -7 -26 2 -23 -3
-28 -43 -38 -71 -19 -115 -44 -180 -102 -34 -30 -64 -54 -69 -54 -4 0 -39 27
-76 60 -37 33 -96 75 -130 94 -66 37 -188 82 -251 92 -22 3 -42 8 -46 10 -10
6 -205 18 -293 18 -113 -1 -315 -15 -400 -29 -248 -39 -416 -21 -590 64 -78
39 -195 120 -245 171 -204 208 -416 308 -830 390 -58 12 -112 23 -120 25 -8 1
-50 8 -92 15 -43 7 -78 14 -78 16 0 2 65 109 144 239 92 151 148 253 155 283
31 135 -25 227 -184 302 -137 64 -368 141 -513 171 l-60 13 41 29 c122 86 186
223 187 393 0 105 -22 168 -79 223 -71 69 -176 93 -291 67z"/>
</g>
</svg>
